<?xml version="1.0" encoding="UTF-8" standalone="no"?>
<!DOCTYPE svg PUBLIC "-//W3C//DTD SVG 1.1//EN" "http://www.w3.org/Graphics/SVG/1.1/DTD/svg11.dtd">
<svg width="100%" height="100%" viewBox="0 0 800 800" version="1.1" xmlns="http://www.w3.org/2000/svg" xmlns:xlink="http://www.w3.org/1999/xlink" xml:space="preserve" xmlns:serif="http://www.serif.com/" style="fill-rule:evenodd;clip-rule:evenodd;stroke-linejoin:round;stroke-miterlimit:2;">
    <g id="left-side-PCB" serif:id="left side PCB">
        <path id="path76" d="M24.295,435.728L29.799,459.598L338.135,640.459L357.457,651.793L357.459,651.791L356.195,626.539L24.295,435.728Z" style="fill:url(#_Linear1);fill-rule:nonzero;"/>
        <path id="path94" d="M24.295,435.728L29.799,459.598L338.135,640.459L357.457,651.793L357.459,651.791L356.195,626.539L24.295,435.728Z" style="fill:url(#_Linear2);fill-rule:nonzero;"/>
    </g>
    <g id="right-side-PCB" serif:id="right side PCB">
        <path id="path80" d="M663.879,389.398L356.195,626.539L357.459,651.791L375.537,637.658L662.617,413.199L663.879,389.398Z" style="fill:url(#_Linear3);fill-rule:nonzero;"/>
        <g id="rect101" transform="matrix(0.807365,-0.590052,0.590052,0.807365,0,0)">
            <path id="path1" d="M2.17,713.868L-82.111,716.02L-95.975,736.371L2.372,733.688L2.17,713.868Z" style="fill:url(#_Radial4);fill-rule:nonzero;"/>
        </g>
    </g>
    <g id="top-PCB" serif:id="top PCB">
        <path id="path69" d="M352.295,273.592L24.295,435.728L356.195,626.539L663.879,389.398L352.295,273.592Z" style="fill:url(#_Linear5);fill-rule:nonzero;"/>
    </g>
    <g id="silkscreen">
        <path id="path10" d="M182.74,423.389L181.09,424.41L178.906,429.637C178.906,429.637 178.405,430.503 178.968,431.066C179.531,431.629 180.738,431.858 181.779,431.112C181.835,430.988 183.523,426.967 183.523,426.967L199.099,434.643L193.75,437.475C193.75,437.475 192.585,438.183 193.983,438.959C195.381,439.735 196.326,439.062 196.326,439.062L209.375,431.949C209.375,431.949 210.545,431.354 209.245,430.547C207.945,429.739 207.084,430.469 207.084,430.469L201.846,432.967L182.74,423.389ZM167.92,431.342C167.92,431.342 161.807,434.567 161.623,434.766C160.219,435.867 159.526,436.363 159.238,437.383C158.951,438.403 159.87,439.377 160.813,440.152C160.949,440.218 172.723,446.858 173.933,447.532C177.678,448.406 178.362,448.227 181.012,447.52C181.727,447.281 189.51,442.868 189.51,442.868C189.51,442.868 190.785,442.481 189.243,441.639C187.701,440.798 187.447,441.406 187.447,441.406C187.447,441.406 180.046,445.15 179.74,445.312C178.433,445.741 177.246,445.819 175.584,445.312C175.123,445.139 163.348,438.753 163.001,438.53C162.519,437.873 162.471,437.815 162.952,437.134C163.132,436.986 169.901,432.889 169.901,432.889C169.901,432.889 170.352,432.339 169.594,431.781C168.835,431.222 167.92,431.341 167.92,431.341L167.92,431.342ZM148.813,441.544C148.813,441.544 143.821,444.519 143.584,444.682C142.822,445.22 142.67,445.772 143.514,446.361C144.357,446.95 145.403,446.486 145.403,446.486L147.245,445.396L163.954,454.442L162.376,455.362C162.376,455.362 161.336,455.854 162.408,456.679C163.481,457.503 164.453,457.007 164.453,457.007L170.416,453.441C170.416,453.441 171.273,452.978 170.377,452.167C169.48,451.355 168.014,452.122 168.014,452.122L166.607,452.727L149.724,443.908L151.145,442.958C151.145,442.958 151.647,442.233 150.839,441.674C150.031,441.116 148.813,441.544 148.813,441.544Z" style="fill:#afb0a8;fill-rule:nonzero;"/>
        <path id="path11" d="M230.522,423.838C228.713,423.95 227.988,424.543 227.949,425.352C227.779,430.003 227.202,433.749 226.976,438.006C226.976,438.006 226.732,439.81 227.402,440.323C228.072,440.837 229.275,440.834 230.235,440.134C231.195,439.433 231.197,438.088 231.197,438.088C231.466,432.764 231.65,431.186 231.882,425.699C231.923,424.323 231.647,424.077 230.522,423.838Z" style="fill:#a9aaa2;fill-rule:nonzero;"/>
        <path id="path12" d="M323.514,371.248C322.164,371.298 321.455,371.734 321.455,371.734L308.816,378.971C308.816,378.971 306.966,380.051 308.219,380.871C309.471,381.691 311.059,381.045 311.059,381.045L323.312,374.219C323.312,374.219 323.479,374.043 324.064,374.016C324.65,373.988 324.947,374.219 324.947,374.219L332.145,377.828C332.309,377.762 332.443,377.713 332.607,377.646C331.506,376.178 330.491,374.754 329.416,373.299L326.525,371.736C326.525,371.736 325.547,371.323 324.133,371.252C323.914,371.241 323.707,371.241 323.514,371.248Z" style="fill:#acaca5;fill-rule:nonzero;"/>
    </g>
    <g id="traces">
        <path id="path160" d="M403.059,291.424L214.961,389.432C214.482,389.681 214.181,390.178 214.181,390.718C214.181,391.283 214.512,391.799 215.025,392.035L250.185,408.182C250.607,408.375 251.098,408.355 251.502,408.127L418.688,314.072C419.143,313.816 419.427,313.332 419.427,312.808C419.427,312.508 419.333,312.216 419.16,311.971L404.912,291.871C404.495,291.282 403.698,291.09 403.059,291.424ZM403.277,294.578L415.863,312.334L250.725,405.236L218.926,390.635L403.277,294.578Z" style="fill:#154a2c;fill-rule:nonzero;"/>
        <path id="path157" d="M298.197,481.488L288.535,487.82L288.354,501.047L344.32,531.563L376.945,528.932L376.646,525.242L345.123,527.787L292.084,498.865L292.207,489.836L300.225,484.584L298.197,481.488Z" style="fill:#0c331b;fill-rule:nonzero;"/>
        <path id="path158" d="M384.139,275.691L186.361,376.275L184.242,393.84L231.26,416.807L232.883,413.482L188.23,391.67L189.799,378.678L385.816,278.99L384.139,275.691Z" style="fill:#134629;fill-rule:nonzero;"/>
        <path id="path156" d="M263.98,462.844L243.305,474.932L242.123,497.221L330.5,544.51L384.365,541.586L384.164,537.893L331.332,540.76L245.943,495.068L246.895,477.119L265.85,466.037L263.98,462.844Z" style="fill:#0c331b;fill-rule:nonzero;"/>
        <path id="traces1" d="M233.982,444.385L209.82,457.965L207.779,478.695L217.334,484.324L219.213,481.137L211.693,476.707L213.314,460.246L235.795,447.609L233.982,444.385Z" style="fill:#154a2c;fill-rule:nonzero;"/>
        <path id="path161" d="M403.521,292.311L215.424,390.318C215.276,390.396 215.183,390.55 215.183,390.717C215.183,390.892 215.285,391.051 215.443,391.125L250.603,407.271C250.734,407.332 250.886,407.326 251.012,407.256L418.197,313.201C418.339,313.122 418.427,312.971 418.427,312.809C418.427,312.716 418.398,312.625 418.344,312.549L404.096,292.449C403.966,292.267 403.72,292.208 403.521,292.311ZM403.588,293.289L417.32,312.66L250.77,406.357L216.652,390.691L403.588,293.289Z" style="fill:#136533;fill-rule:nonzero;"/>
        <path id="path162" d="M298.746,482.324L289.527,488.365L289.361,500.457L344.537,530.543L376.865,527.934L376.729,526.24L344.906,528.807L291.074,499.455L291.215,489.291L299.678,483.746L298.746,482.324Z" style="fill:#156c38;fill-rule:nonzero;"/>
        <path id="path163" d="M384.592,276.584L187.291,376.926L185.32,393.254L231.697,415.908L232.443,414.381L187.152,392.256L188.869,378.029L385.363,278.1L384.592,276.584Z" style="fill:#136533;fill-rule:nonzero;"/>
        <path id="path164" d="M264.486,463.707L244.275,475.521L243.156,496.639L330.725,543.496L384.311,540.588L384.219,538.891L331.107,541.773L244.91,495.65L245.924,476.527L265.344,465.174L264.486,463.707Z" style="fill:#156b37;fill-rule:nonzero;"/>
        <path d="M232.815,484.07C232.734,487.495 229.366,490.49 223.658,491.149C220.335,491.533 217.076,490.886 214.95,489.567C213.382,488.594 212.411,487.253 212.312,485.703C212.201,483.952 212.897,482.457 214.175,481.272C215.938,479.637 218.869,478.601 222.214,478.362C224.894,478.17 227.492,478.441 229.41,479.266C231.536,480.182 232.87,481.755 232.815,484.07ZM231.316,484.035C231.355,482.379 230.338,481.299 228.817,480.644C227.087,479.9 224.739,479.685 222.321,479.858C219.84,480.036 217.604,480.672 216.021,481.726C214.586,482.681 213.706,483.984 213.809,485.608C213.879,486.704 214.632,487.605 215.741,488.292C217.63,489.464 220.533,490 223.486,489.659C225.942,489.375 227.924,488.635 229.296,487.584C230.556,486.617 231.284,485.389 231.316,484.035Z" style="fill:#154a2c;"/>
        <path id="traces2" d="M234.471,445.256L210.764,458.582L208.838,478.158L217.842,483.463L218.705,481.998L210.637,477.244L212.369,459.631L235.305,446.738L234.471,445.256Z" style="fill:#146936;fill-rule:nonzero;"/>
    </g>
    <path id="stencil--shadow-" serif:id="stencil (shadow)" d="M369.559,615.265L215.443,485.334L486.823,315.307L665.156,396.993L369.559,615.265Z" style="fill:url(#_Linear6);fill-rule:nonzero;"/>
    <g id="pads">
        <path id="path59" d="M425.002,448.082L397.824,436.963L388.053,444.09L415.016,455.121L425.002,448.082Z" style="fill:#6f7700;fill-rule:nonzero;"/>
        <path id="path57" d="M411.504,426.984L400.389,435.092L427.625,446.234L438.984,438.227L411.504,426.984Z" style="fill:#6a7200;fill-rule:nonzero;"/>
        <path id="path40" d="M311.938,466.928L282.371,484.377L296.543,491.768L325.822,473.893L311.938,466.928Z" style="fill:url(#_Linear7);fill-rule:nonzero;"/>
        <path id="path38" d="M294.965,458.416L265.705,475.682L279.445,482.85L308.416,465.162L294.965,458.416Z" style="fill:#6a6f00;fill-rule:nonzero;"/>
        <path id="path36" d="M277.902,449.859L248.951,466.943L263.141,474.346L292.137,456.998L277.902,449.859Z" style="fill:#696e00;fill-rule:nonzero;"/>
        <path id="path34" d="M260.689,441.227L232.049,458.127L246.383,465.604L275.072,448.439L260.689,441.227Z" style="fill:#919300;fill-rule:nonzero;"/>
        <path id="path32" d="M245.305,433.512L216.943,450.248L229.818,456.963L258.51,440.133L245.305,433.512Z" style="fill:#aa0;fill-rule:nonzero;"/>
        <path id="path49" d="M258.279,421.467L231.635,408.279L217.658,415.982L244.838,429.436L258.279,421.467Z" style="fill:#a9aa00;fill-rule:nonzero;"/>
        <path id="path52" d="M274.498,411.854L247.795,399.371L234.744,406.564L261.453,419.586L274.498,411.854Z" style="fill:#a9aa00;fill-rule:nonzero;"/>
        <path id="path46" d="M293.789,374.018L282.992,379.969L308.074,391.951L318.453,385.801L293.789,374.018Z" style="fill:#acad00;fill-rule:nonzero;"/>
        <path id="path62" d="M348.426,374.627L328.924,385.807L342.584,391.732L362.406,380.369L348.426,374.627Z" style="fill:#abac16;fill-rule:nonzero;"/>
        <path id="path2" d="M232.066,484.053C231.991,487.191 228.802,489.8 223.572,490.404C218.342,491.008 213.272,488.963 213.061,485.655C212.82,481.864 217.016,479.486 222.268,479.11C227.366,478.745 232.159,480.082 232.066,484.053Z" style="fill:#a9aa00;fill-rule:nonzero;"/>
        <g id="via-hole" serif:id="via hole" transform="matrix(0.991319,-0.131481,0.131481,0.991319,0,0)">
            <path id="ellipse2" d="M160.16,510.144C160.16,511.013 158.763,511.728 157.066,511.728C155.369,511.728 153.972,511.013 153.972,510.144C153.972,509.275 155.369,508.56 157.066,508.56C158.763,508.56 160.16,509.275 160.16,510.144Z" style="fill:#cdb900;"/>
        </g>
        <g id="via-hole--shadow-" serif:id="via hole (shadow)" transform="matrix(0.991319,-0.131481,0.131481,0.991319,0,0)">
            <path id="path3" d="M159.849,509.459C157.111,509.472 155.027,509.972 154.25,510.801C154.752,511.365 155.856,511.728 157.065,511.728C158.763,511.728 160.16,511.013 160.16,510.144L160.16,510.143C160.157,509.906 160.051,509.673 159.849,509.459Z" style="fill:#5c4e00;fill-opacity:0.8;fill-rule:nonzero;"/>
        </g>
    </g>
    <path id="path170" d="M490.9,501.781L514.043,623.078C514.125,623.116 514.205,623.157 514.287,623.193C613.534,547.764 677.534,498.804 775.688,408.07L775.133,407.238L490.9,501.781Z" style="fill:#666;fill-rule:nonzero;"/>
    <path id="path169" d="M173.441,248.701C171.05,248.794 168.611,249.041 166.125,249.451L165.848,251.672C239.972,444.04 366.847,557.114 514.043,623.078L490.9,501.781L416.256,526.609L276.648,390.398C276.648,390.398 247.586,245.81 173.441,248.701Z" style="fill:#ccc;fill-rule:nonzero;"/>
    <g id="g27">
        <g id="g4" transform="matrix(1,0,0,1,0,1)">
            <path id="path4" d="M342.35,275.781L337.044,272.592L354.449,266.726L352.461,270.832L352.461,271.832C349.191,273.146 342.35,275.781 342.35,275.781Z" style="fill:#666;"/>
        </g>
        <g id="g5" transform="matrix(1,0,0,1,0,1)">
            <path id="path5" d="M359.037,269.109L354.449,266.726L373.614,259.075L368.691,264.09L368.691,265.09C365.804,266.347 359.037,269.109 359.037,269.109Z" style="fill:#666;"/>
        </g>
        <g id="g6" transform="matrix(1,0,0,1,0,1)">
            <path id="path6" d="M325.152,282.246L319.286,276.86L337.044,272.592L335.596,277.379L335.596,278.379C332.079,279.708 325.152,282.246 325.152,282.246Z" style="fill:#666;"/>
        </g>
        <g id="g7" transform="matrix(1,0,0,1,0,1)">
            <path id="path7" d="M307.826,288.365L300.596,282.547L319.286,276.86L318.225,283.717L318.225,284.717C314.712,285.959 307.826,288.365 307.826,288.365Z" style="fill:#666;"/>
        </g>
        <g id="g8" transform="matrix(1,0,0,1,0,1)">
            <path id="path8" d="M289.385,294.168L280.6,289.612L300.484,282.586L300.391,289.826L300.391,290.826C296.462,292.087 289.385,294.168 289.385,294.168Z" style="fill:#666;"/>
        </g>
        <g id="g9" transform="matrix(1,0,0,1,0,1)">
            <path id="path9" d="M465.885,404.82L458.057,401.383L474.392,392.927L475.109,398.063L475.109,399.063C472.039,401.021 465.885,404.82 465.885,404.82Z" style="fill:#666;"/>
        </g>
        <g id="g13" transform="matrix(1,0,0,1,0,1)">
            <path id="path13" d="M464.563,377.857L454.119,378.286L489.97,357.256L487.574,363.914L487.574,364.914C480.651,368.952 464.563,377.857 464.563,377.857Z" style="fill:#666;"/>
        </g>
        <g id="g14" transform="matrix(1,0,0,1,0,1)">
            <path id="path14" d="M447.762,360.324L442.491,360.402L474.392,341.511L471.018,346.668L471.018,347.668C464.006,351.637 447.762,360.324 447.762,360.324Z" style="fill:#666;"/>
        </g>
        <g id="g15" transform="matrix(1,0,0,1,0,1)">
            <path id="path15" d="M417.285,323.314L409.394,321.484L442.491,302.88L440.928,310.543L440.928,311.543C433.703,315.31 417.285,323.314 417.285,323.314Z" style="fill:#666;"/>
        </g>
        <g id="g16" transform="matrix(1,0,0,1,0,1)">
            <path id="path16" d="M431.969,341.832L424.739,341.855L458.057,324.565L455.363,328.658L455.363,329.658C448.253,333.519 431.969,341.832 431.969,341.832Z" style="fill:#666;"/>
        </g>
        <g id="g17" transform="matrix(1,0,0,1,0,1)">
            <path id="path17" d="M402.59,303.404L395.336,300.25L428.679,284.276L426.721,290.764L426.721,291.764C419.338,295.509 402.59,303.404 402.59,303.404Z" style="fill:#666;"/>
        </g>
        <g id="g18" transform="matrix(1,0,0,1,0,1)">
            <path id="path18" d="M310.098,396.252L300.656,394.564L345.721,378.218L338.322,384.061L338.322,385.061C327.489,389.595 310.098,396.252 310.098,396.252Z" style="fill:#666;"/>
        </g>
        <g id="g19" transform="matrix(1,0,0,1,0,1)">
            <path id="path19" d="M326.852,417.047L316.717,416.532L357.635,399L354.646,404.43L354.646,405.43C344.143,410.053 326.852,417.047 326.852,417.047Z" style="fill:#666;"/>
        </g>
        <g id="g20" transform="matrix(1,0,0,1,0,1)">
            <path id="path20" d="M344.834,437.41L335.673,434.034L374.724,416.532L372.154,423.865L372.154,424.865C361.838,429.762 344.834,437.41 344.834,437.41Z" style="fill:#666;"/>
        </g>
        <g id="g21" transform="matrix(1,0,0,1,0,1)">
            <path id="path21" d="M399.482,439.684L390.634,437.892L409.221,427.407L409.729,434.035L409.729,435.035C406.123,436.737 399.482,439.684 399.482,439.684Z" style="fill:#666;"/>
        </g>
        <g id="g22" transform="matrix(1,0,0,1,0,1)">
            <path id="path22" d="M416.664,431.697L409.221,427.407L427.036,418.976L427.217,425.43L427.217,426.43C423.621,428.27 416.664,431.697 416.664,431.697Z" style="fill:#666;"/>
        </g>
        <g id="g23" transform="matrix(1,0,0,1,0,1)">
            <path id="path23" d="M450.34,413.959L442.491,410.18L458.26,401.554L459.582,407.613L459.582,408.613C456.489,410.443 450.34,413.959 450.34,413.959Z" style="fill:#666;"/>
        </g>
        <g id="g24" transform="matrix(1,0,0,1,0,1)">
            <path id="path24" d="M433.695,423.051L427.036,418.976L442.491,410.18L443.732,416.643L443.732,417.643C440.349,419.505 433.695,423.051 433.695,423.051Z" style="fill:#666;"/>
        </g>
        <g id="g25" transform="matrix(1,0,0,1,0,1)">
            <path id="path25" d="M278.875,353.146L266.249,348.044L314.459,336.364L307.639,341.926L307.639,342.926C296.384,347.147 278.875,353.146 278.875,353.146Z" style="fill:#666;"/>
        </g>
        <g id="g26" transform="matrix(1,0,0,1,0,1)">
            <path id="path26" d="M294.131,375.008L283.198,372.771L329.145,356.874L322.805,363.295L322.805,364.295C311.798,368.617 294.131,375.008 294.131,375.008Z" style="fill:#666;"/>
        </g>
    </g>
    <g id="g55">
        <g id="g28" transform="matrix(1,0,0,1,0,1)">
            <path id="path27" d="M354.449,266.726L380.444,309.478L372.934,304.893C372.934,304.893 359.292,283.26 352.461,271.832L352.461,270.832L354.449,266.726Z" style="fill:#ccc;"/>
        </g>
        <g id="g29" transform="matrix(1,0,0,1,0,1)">
            <path id="path28" d="M373.614,259.075L398.867,298.062L388.861,297.65C388.861,297.65 375.465,276.431 368.691,265.09L368.691,264.09L373.614,259.075Z" style="fill:#ccc;"/>
        </g>
        <g id="g30" transform="matrix(1,0,0,1,0,1)">
            <path id="path29" d="M337.044,272.592L378.327,336.631L371.48,335.119C371.48,335.119 371.013,334.436 370.777,334.098C367.826,329.86 364.925,325.555 362.055,321.193C360.071,318.179 358.087,315.126 356.117,312.031C349.424,301.518 342.632,290.245 335.596,278.379L335.596,277.379L337.044,272.592Z" style="fill:#ccc;"/>
        </g>
        <g id="g31" transform="matrix(1,0,0,1,0,1)">
            <path id="path30" d="M319.286,276.86L348.442,326.229L338.93,318.908C338.93,318.908 325.312,296.709 318.225,284.717L318.225,283.717L319.286,276.86Z" style="fill:#ccc;"/>
        </g>
        <g id="g32" transform="matrix(1,0,0,1,0,1)">
            <path id="path31" d="M300.484,282.586L300.596,282.547L327.528,329.136L321.271,325.543C321.271,325.543 307.257,302.788 300.391,290.826L300.391,289.826L300.484,282.586Z" style="fill:#ccc;"/>
        </g>
        <g id="g33" transform="matrix(1,0,0,1,0,1)">
            <path id="path33" d="M474.392,392.927L511.618,423.2L504.102,423.721C504.102,423.721 483.994,407.081 475.109,399.063L475.109,398.063L474.392,392.927Z" style="fill:#ccc;"/>
        </g>
        <g id="g35" transform="matrix(1,0,0,1,0,1)">
            <path id="path35" d="M489.97,357.256L506.863,372.283L498.619,375.096C498.619,375.096 491.391,368.645 487.574,364.914L487.574,363.914L489.97,357.256Z" style="fill:#ccc;"/>
        </g>
        <g id="g37" transform="matrix(1,0,0,1,0,1)">
            <path id="path37" d="M474.392,341.511L489.97,357.256L480.969,358.275C480.969,358.275 474.349,351.335 471.018,347.668L471.018,346.668L474.392,341.511Z" style="fill:#ccc;"/>
        </g>
        <g id="g39" transform="matrix(1,0,0,1,0,1)">
            <path id="path39" d="M442.491,302.88L458.057,324.565L450.467,323.689C450.467,323.689 443.97,315.531 440.928,311.543L440.928,310.543L442.491,302.88Z" style="fill:#ccc;"/>
        </g>
        <g id="g41" transform="matrix(1,0,0,1,0,1)">
            <path id="path41" d="M458.057,324.565L474.392,341.511L465.422,341.398C465.422,341.398 458.654,333.613 455.363,329.658L455.363,328.658L458.057,324.565Z" style="fill:#ccc;"/>
        </g>
        <g id="g42" transform="matrix(1,0,0,1,0,1)">
            <path id="path42" d="M428.679,284.276L442.491,304.35L435.404,304.152C435.404,304.152 429.302,295.647 426.721,291.764L426.721,290.764L428.679,284.276Z" style="fill:#ccc;"/>
        </g>
        <g id="g43" transform="matrix(1,0,0,1,0,1)">
            <path id="path43" d="M345.721,378.218L357.635,399L348.25,397.709C348.25,397.709 341.581,389.295 338.322,385.061L338.322,384.061L345.721,378.218Z" style="fill:#ccc;"/>
        </g>
        <g id="g44" transform="matrix(1,0,0,1,0,1)">
            <path id="path44" d="M357.635,399L374.724,416.532L364.965,417.213C364.965,417.213 358.036,409.442 354.646,405.43L354.646,404.43L357.635,399Z" style="fill:#ccc;"/>
        </g>
        <g id="g45" transform="matrix(1,0,0,1,0,1)">
            <path id="path45" d="M374.724,416.532L390.634,437.892L383.437,435.939C383.437,435.939 375.881,428.716 372.154,424.865L372.154,423.865L374.724,416.532Z" style="fill:#ccc;"/>
        </g>
        <g id="g47" transform="matrix(1,0,0,1,0,1)">
            <path id="path47" d="M409.221,427.407L447.687,464.258L439.078,461.781C439.078,461.781 418.87,443.891 409.729,435.035L409.729,434.035L409.221,427.407Z" style="fill:#ccc;"/>
        </g>
        <g id="g48" transform="matrix(1,0,0,1,0,1)">
            <path id="path48" d="M427.036,418.976L466.231,453.28L456.42,452.283C456.42,452.283 436.116,434.737 427.217,426.43L427.217,425.43L427.036,418.976Z" style="fill:#ccc;"/>
        </g>
        <g id="g50" transform="matrix(1,0,0,1,0,1)">
            <path id="path50" d="M458.26,401.554L496.915,434.034L488.553,433.449C488.553,433.449 468.548,416.834 459.582,408.613L459.582,407.613L458.26,401.554Z" style="fill:#ccc;"/>
        </g>
        <g id="g51" transform="matrix(1,0,0,1,0,1)">
            <path id="path51" d="M442.491,410.18L480.491,444.954L472.018,443.332C472.018,443.332 452.351,425.805 443.732,417.643L443.732,416.643L442.491,410.18Z" style="fill:#ccc;"/>
        </g>
        <g id="g53" transform="matrix(1,0,0,1,0,1)">
            <path id="path53" d="M314.459,336.364L329.145,356.874L316.912,356.061C316.912,356.061 310.584,347.138 307.639,342.926L307.639,341.926L314.459,336.364Z" style="fill:#ccc;"/>
        </g>
        <g id="g54" transform="matrix(1,0,0,1,0,1)">
            <path id="path54" d="M329.145,356.874L345.721,378.203L332.607,377.646C332.607,377.646 325.98,368.688 322.805,364.295L322.805,363.295L329.145,356.874Z" style="fill:#ccc;"/>
        </g>
    </g>
    <path id="Stencil" d="M475.272,147.219C418.007,179.661 292.592,228.718 166.125,249.451C240.29,441.926 366.71,556.135 514.01,622.084C613.256,546.654 676.979,497.972 775.133,407.238C587.663,346.674 511.755,218.143 475.272,147.219ZM368.691,265.09C375.465,276.431 382.147,287.348 388.861,297.65C385.798,299.102 382.736,300.544 379.377,302.055C372.625,291.634 365.884,280.59 359.037,269.109C362.323,267.75 365.804,266.347 368.691,265.09ZM352.461,271.832C359.292,283.26 366.077,294.342 372.934,304.893C369.734,306.293 366.562,307.67 363.234,309.074C356.188,298.358 349.267,287.297 342.35,275.781C345.801,274.445 349.191,273.146 352.461,271.832ZM335.596,278.379C342.632,290.245 349.424,301.518 356.117,312.031C358.087,315.126 360.071,318.179 362.055,321.193C364.925,325.555 367.826,329.86 370.777,334.098C371.013,334.436 371.244,334.781 371.48,335.119C368.179,336.734 364.851,338.396 361.658,339.859C361.331,339.388 361.004,338.914 360.678,338.441C357.724,334.164 354.806,329.835 351.924,325.451C349.91,322.388 347.901,319.289 345.908,316.166C338.995,305.332 332.12,293.972 325.152,282.246C328.691,280.959 332.079,279.708 335.596,278.379ZM318.225,284.717C325.312,296.709 332.158,308.138 338.93,318.908C335.497,320.24 332.196,321.491 328.877,322.73C321.78,311.605 314.807,300.107 307.826,288.365C311.199,287.23 314.712,285.959 318.225,284.717ZM300.391,290.826C307.257,302.788 314.171,314.333 321.271,325.543C317.526,326.894 314.095,328.068 310.699,329.215C303.583,317.962 296.541,306.268 289.385,294.168C292.831,293.178 296.462,292.087 300.391,290.826ZM426.721,291.764C429.302,295.647 432.225,299.806 435.404,304.152C428.141,307.899 420.148,311.817 411.615,315.834C408.219,311.267 405.234,307.148 402.59,303.404C411.224,299.415 419.338,295.509 426.721,291.764ZM440.928,311.543C443.97,315.531 447.144,319.585 450.467,323.689C443.292,327.512 435.391,331.533 426.957,335.67C423.547,331.413 420.354,327.328 417.285,323.314C425.761,319.257 433.703,315.31 440.928,311.543ZM455.363,329.658C458.654,333.613 462.021,337.532 465.422,341.398C458.339,345.31 450.403,349.487 441.988,353.799C438.532,349.816 435.251,345.829 431.969,341.832C440.315,337.62 448.253,333.519 455.363,329.658ZM307.639,342.926C310.584,347.138 313.674,351.504 316.912,356.061C305.779,360.33 295.726,364.033 288.104,366.557C284.733,361.767 281.647,357.29 278.875,353.146C286.399,350.725 296.384,347.147 307.639,342.926ZM471.018,347.668C474.349,351.335 477.675,354.88 480.969,358.275C473.98,362.265 466.109,366.572 457.76,371.031C454.407,367.564 451.065,363.998 447.762,360.324C456.13,355.906 464.006,351.637 471.018,347.668ZM322.805,364.295C325.98,368.688 329.225,373.137 332.607,377.646C321.496,382.108 311.593,385.898 304.107,388.437C300.624,383.838 297.274,379.347 294.131,375.008C301.764,372.414 311.798,368.617 322.805,364.295ZM487.574,364.914C491.391,368.645 495.083,372.044 498.619,375.096C491.603,379.052 483.865,383.339 475.496,387.9C471.893,384.817 468.238,381.435 464.563,377.857C472.862,373.322 480.651,368.952 487.574,364.914ZM338.322,385.061C341.581,389.295 344.848,393.519 348.25,397.709C337.644,402.218 327.778,406.278 320.227,409.043C316.724,404.745 313.392,400.487 310.098,396.252C317.626,393.562 327.489,389.595 338.322,385.061ZM475.109,399.063C483.994,407.081 493.66,415.283 504.102,423.721C501.011,425.701 497.991,427.663 494.74,429.684C484.335,421.175 474.743,412.911 465.885,404.82C468.966,402.943 472.039,401.021 475.109,399.063ZM354.646,405.43C358.036,409.442 361.475,413.38 364.965,417.213C354.342,422.152 344.801,426.472 337.645,429.496C333.987,425.385 330.374,421.234 326.852,417.047C334.365,414.216 344.143,410.053 354.646,405.43ZM459.582,408.613C468.548,416.834 478.181,425.092 488.553,433.449C485.381,435.386 482.212,437.32 478.955,439.258C468.795,430.809 459.298,422.394 450.34,413.959C453.409,412.219 456.489,410.443 459.582,408.613ZM443.732,417.643C452.351,425.805 461.711,434.318 472.018,443.332C469.039,445.073 466.053,446.797 463.053,448.51C452.468,439.903 442.75,431.443 433.695,423.051C437.005,421.308 440.349,419.505 443.732,417.643ZM372.154,424.865C375.881,428.716 379.642,432.444 383.437,435.939C373.021,441.115 363.744,445.597 356.063,449.131C352.283,445.343 348.542,441.408 344.834,437.41C352.408,434.123 361.838,429.762 372.154,424.865ZM427.217,426.43C436.116,434.737 445.777,443.311 456.42,452.283C453.081,454.156 449.782,455.951 446.477,457.754C435.853,449.161 425.946,440.486 416.664,431.697C420.11,430.016 423.621,428.27 427.217,426.43ZM409.729,435.035C418.87,443.891 428.631,452.788 439.078,461.781C435.815,463.521 432.68,465.12 429.514,466.752C418.714,457.566 408.706,448.559 399.482,439.684C402.834,438.185 406.123,436.737 409.729,435.035Z" style="fill:url(#_Radial8);fill-rule:nonzero;"/>
    <path id="Stencil1" serif:id="Stencil" d="M475.272,147.219C418.007,179.661 292.592,228.718 166.125,249.451C240.29,441.926 366.71,556.135 514.01,622.084C613.256,546.654 676.979,497.972 775.133,407.238C587.663,346.674 511.755,218.143 475.272,147.219ZM368.691,265.09C375.465,276.431 382.147,287.348 388.861,297.65C385.798,299.102 382.736,300.544 379.377,302.055C372.625,291.634 365.884,280.59 359.037,269.109C362.323,267.75 365.804,266.347 368.691,265.09ZM352.461,271.832C359.292,283.26 366.077,294.342 372.934,304.893C369.734,306.293 366.562,307.67 363.234,309.074C356.188,298.358 349.267,287.297 342.35,275.781C345.801,274.445 349.191,273.146 352.461,271.832ZM335.596,278.379C342.632,290.245 349.424,301.518 356.117,312.031C358.087,315.126 360.071,318.179 362.055,321.193C364.925,325.555 367.826,329.86 370.777,334.098C371.013,334.436 371.244,334.781 371.48,335.119C368.179,336.734 364.851,338.396 361.658,339.859C361.331,339.388 361.004,338.914 360.678,338.441C357.724,334.164 354.806,329.835 351.924,325.451C349.91,322.388 347.901,319.289 345.908,316.166C338.995,305.332 332.12,293.972 325.152,282.246C328.691,280.959 332.079,279.708 335.596,278.379ZM318.225,284.717C325.312,296.709 332.158,308.138 338.93,318.908C335.497,320.24 332.196,321.491 328.877,322.73C321.78,311.605 314.807,300.107 307.826,288.365C311.199,287.23 314.712,285.959 318.225,284.717ZM300.391,290.826C307.257,302.788 314.171,314.333 321.271,325.543C317.526,326.894 314.095,328.068 310.699,329.215C303.583,317.962 296.541,306.268 289.385,294.168C292.831,293.178 296.462,292.087 300.391,290.826ZM426.721,291.764C429.302,295.647 432.225,299.806 435.404,304.152C428.141,307.899 420.148,311.817 411.615,315.834C408.219,311.267 405.234,307.148 402.59,303.404C411.224,299.415 419.338,295.509 426.721,291.764ZM440.928,311.543C443.97,315.531 447.144,319.585 450.467,323.689C443.292,327.512 435.391,331.533 426.957,335.67C423.547,331.413 420.354,327.328 417.285,323.314C425.761,319.257 433.703,315.31 440.928,311.543ZM455.363,329.658C458.654,333.613 462.021,337.532 465.422,341.398C458.339,345.31 450.403,349.487 441.988,353.799C438.532,349.816 435.251,345.829 431.969,341.832C440.315,337.62 448.253,333.519 455.363,329.658ZM307.639,342.926C310.584,347.138 313.674,351.504 316.912,356.061C305.779,360.33 295.726,364.033 288.104,366.557C284.733,361.767 281.647,357.29 278.875,353.146C286.399,350.725 296.384,347.147 307.639,342.926ZM471.018,347.668C474.349,351.335 477.675,354.88 480.969,358.275C473.98,362.265 466.109,366.572 457.76,371.031C454.407,367.564 451.065,363.998 447.762,360.324C456.13,355.906 464.006,351.637 471.018,347.668ZM322.805,364.295C325.98,368.688 329.225,373.137 332.607,377.646C321.496,382.108 311.593,385.898 304.107,388.437C300.624,383.838 297.274,379.347 294.131,375.008C301.764,372.414 311.798,368.617 322.805,364.295ZM487.574,364.914C491.391,368.645 495.083,372.044 498.619,375.096C491.603,379.052 483.865,383.339 475.496,387.9C471.893,384.817 468.238,381.435 464.563,377.857C472.862,373.322 480.651,368.952 487.574,364.914ZM338.322,385.061C341.581,389.295 344.848,393.519 348.25,397.709C337.644,402.218 327.778,406.278 320.227,409.043C316.724,404.745 313.392,400.487 310.098,396.252C317.626,393.562 327.489,389.595 338.322,385.061ZM475.109,399.063C483.994,407.081 493.66,415.283 504.102,423.721C501.011,425.701 497.991,427.663 494.74,429.684C484.335,421.175 474.743,412.911 465.885,404.82C468.966,402.943 472.039,401.021 475.109,399.063ZM354.646,405.43C358.036,409.442 361.475,413.38 364.965,417.213C354.342,422.152 344.801,426.472 337.645,429.496C333.987,425.385 330.374,421.234 326.852,417.047C334.365,414.216 344.143,410.053 354.646,405.43ZM459.582,408.613C468.548,416.834 478.181,425.092 488.553,433.449C485.381,435.386 482.212,437.32 478.955,439.258C468.795,430.809 459.298,422.394 450.34,413.959C453.409,412.219 456.489,410.443 459.582,408.613ZM443.732,417.643C452.351,425.805 461.711,434.318 472.018,443.332C469.039,445.073 466.053,446.797 463.053,448.51C452.468,439.903 442.75,431.443 433.695,423.051C437.005,421.308 440.349,419.505 443.732,417.643ZM372.154,424.865C375.881,428.716 379.642,432.444 383.437,435.939C373.021,441.115 363.744,445.597 356.063,449.131C352.283,445.343 348.542,441.408 344.834,437.41C352.408,434.123 361.838,429.762 372.154,424.865ZM427.217,426.43C436.116,434.737 445.777,443.311 456.42,452.283C453.081,454.156 449.782,455.951 446.477,457.754C435.853,449.161 425.946,440.486 416.664,431.697C420.11,430.016 423.621,428.27 427.217,426.43ZM409.729,435.035C418.87,443.891 428.631,452.788 439.078,461.781C435.815,463.521 432.68,465.12 429.514,466.752C418.714,457.566 408.706,448.559 399.482,439.684C402.834,438.185 406.123,436.737 409.729,435.035Z" style="fill:url(#_Linear9);fill-rule:nonzero;"/>
    <path id="Stencil2" serif:id="Stencil" d="M475.272,147.219C418.007,179.661 292.592,228.718 166.125,249.451C240.29,441.926 366.71,556.135 514.01,622.084C613.256,546.654 676.979,497.972 775.133,407.238C587.663,346.674 511.755,218.143 475.272,147.219ZM368.691,265.09C375.465,276.431 382.147,287.348 388.861,297.65C385.798,299.102 382.736,300.544 379.377,302.055C372.625,291.634 365.884,280.59 359.037,269.109C362.323,267.75 365.804,266.347 368.691,265.09ZM352.461,271.832C359.292,283.26 366.077,294.342 372.934,304.893C369.734,306.293 366.562,307.67 363.234,309.074C356.188,298.358 349.267,287.297 342.35,275.781C345.801,274.445 349.191,273.146 352.461,271.832ZM335.596,278.379C342.632,290.245 349.424,301.518 356.117,312.031C358.087,315.126 360.071,318.179 362.055,321.193C364.925,325.555 367.826,329.86 370.777,334.098C371.013,334.436 371.244,334.781 371.48,335.119C368.179,336.734 364.851,338.396 361.658,339.859C361.331,339.388 361.004,338.914 360.678,338.441C357.724,334.164 354.806,329.835 351.924,325.451C349.91,322.388 347.901,319.289 345.908,316.166C338.995,305.332 332.12,293.972 325.152,282.246C328.691,280.959 332.079,279.708 335.596,278.379ZM318.225,284.717C325.312,296.709 332.158,308.138 338.93,318.908C335.497,320.24 332.196,321.491 328.877,322.73C321.78,311.605 314.807,300.107 307.826,288.365C311.199,287.23 314.712,285.959 318.225,284.717ZM300.391,290.826C307.257,302.788 314.171,314.333 321.271,325.543C317.526,326.894 314.095,328.068 310.699,329.215C303.583,317.962 296.541,306.268 289.385,294.168C292.831,293.178 296.462,292.087 300.391,290.826ZM426.721,291.764C429.302,295.647 432.225,299.806 435.404,304.152C428.141,307.899 420.148,311.817 411.615,315.834C408.219,311.267 405.234,307.148 402.59,303.404C411.224,299.415 419.338,295.509 426.721,291.764ZM440.928,311.543C443.97,315.531 447.144,319.585 450.467,323.689C443.292,327.512 435.391,331.533 426.957,335.67C423.547,331.413 420.354,327.328 417.285,323.314C425.761,319.257 433.703,315.31 440.928,311.543ZM455.363,329.658C458.654,333.613 462.021,337.532 465.422,341.398C458.339,345.31 450.403,349.487 441.988,353.799C438.532,349.816 435.251,345.829 431.969,341.832C440.315,337.62 448.253,333.519 455.363,329.658ZM307.639,342.926C310.584,347.138 313.674,351.504 316.912,356.061C305.779,360.33 295.726,364.033 288.104,366.557C284.733,361.767 281.647,357.29 278.875,353.146C286.399,350.725 296.384,347.147 307.639,342.926ZM471.018,347.668C474.349,351.335 477.675,354.88 480.969,358.275C473.98,362.265 466.109,366.572 457.76,371.031C454.407,367.564 451.065,363.998 447.762,360.324C456.13,355.906 464.006,351.637 471.018,347.668ZM322.805,364.295C325.98,368.688 329.225,373.137 332.607,377.646C321.496,382.108 311.593,385.898 304.107,388.437C300.624,383.838 297.274,379.347 294.131,375.008C301.764,372.414 311.798,368.617 322.805,364.295ZM487.574,364.914C491.391,368.645 495.083,372.044 498.619,375.096C491.603,379.052 483.865,383.339 475.496,387.9C471.893,384.817 468.238,381.435 464.563,377.857C472.862,373.322 480.651,368.952 487.574,364.914ZM338.322,385.061C341.581,389.295 344.848,393.519 348.25,397.709C337.644,402.218 327.778,406.278 320.227,409.043C316.724,404.745 313.392,400.487 310.098,396.252C317.626,393.562 327.489,389.595 338.322,385.061ZM475.109,399.063C483.994,407.081 493.66,415.283 504.102,423.721C501.011,425.701 497.991,427.663 494.74,429.684C484.335,421.175 474.743,412.911 465.885,404.82C468.966,402.943 472.039,401.021 475.109,399.063ZM354.646,405.43C358.036,409.442 361.475,413.38 364.965,417.213C354.342,422.152 344.801,426.472 337.645,429.496C333.987,425.385 330.374,421.234 326.852,417.047C334.365,414.216 344.143,410.053 354.646,405.43ZM459.582,408.613C468.548,416.834 478.181,425.092 488.553,433.449C485.381,435.386 482.212,437.32 478.955,439.258C468.795,430.809 459.298,422.394 450.34,413.959C453.409,412.219 456.489,410.443 459.582,408.613ZM443.732,417.643C452.351,425.805 461.711,434.318 472.018,443.332C469.039,445.073 466.053,446.797 463.053,448.51C452.468,439.903 442.75,431.443 433.695,423.051C437.005,421.308 440.349,419.505 443.732,417.643ZM372.154,424.865C375.881,428.716 379.642,432.444 383.437,435.939C373.021,441.115 363.744,445.597 356.063,449.131C352.283,445.343 348.542,441.408 344.834,437.41C352.408,434.123 361.838,429.762 372.154,424.865ZM427.217,426.43C436.116,434.737 445.777,443.311 456.42,452.283C453.081,454.156 449.782,455.951 446.477,457.754C435.853,449.161 425.946,440.486 416.664,431.697C420.11,430.016 423.621,428.27 427.217,426.43ZM409.729,435.035C418.87,443.891 428.631,452.788 439.078,461.781C435.815,463.521 432.68,465.12 429.514,466.752C418.714,457.566 408.706,448.559 399.482,439.684C402.834,438.185 406.123,436.737 409.729,435.035Z" style="fill:url(#_Radial10);fill-rule:nonzero;"/>
    <path id="Stencil3" serif:id="Stencil" d="M475.272,147.219C418.007,179.661 292.592,228.718 166.125,249.451C240.29,441.926 366.71,556.135 514.01,622.084C613.256,546.654 676.979,497.972 775.133,407.238C587.663,346.674 511.755,218.143 475.272,147.219ZM368.691,265.09C375.465,276.431 382.147,287.348 388.861,297.65C385.798,299.102 382.736,300.544 379.377,302.055C372.625,291.634 365.884,280.59 359.037,269.109C362.323,267.75 365.804,266.347 368.691,265.09ZM352.461,271.832C359.292,283.26 366.077,294.342 372.934,304.893C369.734,306.293 366.562,307.67 363.234,309.074C356.188,298.358 349.267,287.297 342.35,275.781C345.801,274.445 349.191,273.146 352.461,271.832ZM335.596,278.379C342.632,290.245 349.424,301.518 356.117,312.031C358.087,315.126 360.071,318.179 362.055,321.193C364.925,325.555 367.826,329.86 370.777,334.098C371.013,334.436 371.244,334.781 371.48,335.119C368.179,336.734 364.851,338.396 361.658,339.859C361.331,339.388 361.004,338.914 360.678,338.441C357.724,334.164 354.806,329.835 351.924,325.451C349.91,322.388 347.901,319.289 345.908,316.166C338.995,305.332 332.12,293.972 325.152,282.246C328.691,280.959 332.079,279.708 335.596,278.379ZM318.225,284.717C325.312,296.709 332.158,308.138 338.93,318.908C335.497,320.24 332.196,321.491 328.877,322.73C321.78,311.605 314.807,300.107 307.826,288.365C311.199,287.23 314.712,285.959 318.225,284.717ZM300.391,290.826C307.257,302.788 314.171,314.333 321.271,325.543C317.526,326.894 314.095,328.068 310.699,329.215C303.583,317.962 296.541,306.268 289.385,294.168C292.831,293.178 296.462,292.087 300.391,290.826ZM426.721,291.764C429.302,295.647 432.225,299.806 435.404,304.152C428.141,307.899 420.148,311.817 411.615,315.834C408.219,311.267 405.234,307.148 402.59,303.404C411.224,299.415 419.338,295.509 426.721,291.764ZM440.928,311.543C443.97,315.531 447.144,319.585 450.467,323.689C443.292,327.512 435.391,331.533 426.957,335.67C423.547,331.413 420.354,327.328 417.285,323.314C425.761,319.257 433.703,315.31 440.928,311.543ZM455.363,329.658C458.654,333.613 462.021,337.532 465.422,341.398C458.339,345.31 450.403,349.487 441.988,353.799C438.532,349.816 435.251,345.829 431.969,341.832C440.315,337.62 448.253,333.519 455.363,329.658ZM307.639,342.926C310.584,347.138 313.674,351.504 316.912,356.061C305.779,360.33 295.726,364.033 288.104,366.557C284.733,361.767 281.647,357.29 278.875,353.146C286.399,350.725 296.384,347.147 307.639,342.926ZM471.018,347.668C474.349,351.335 477.675,354.88 480.969,358.275C473.98,362.265 466.109,366.572 457.76,371.031C454.407,367.564 451.065,363.998 447.762,360.324C456.13,355.906 464.006,351.637 471.018,347.668ZM322.805,364.295C325.98,368.688 329.225,373.137 332.607,377.646C321.496,382.108 311.593,385.898 304.107,388.437C300.624,383.838 297.274,379.347 294.131,375.008C301.764,372.414 311.798,368.617 322.805,364.295ZM487.574,364.914C491.391,368.645 495.083,372.044 498.619,375.096C491.603,379.052 483.865,383.339 475.496,387.9C471.893,384.817 468.238,381.435 464.563,377.857C472.862,373.322 480.651,368.952 487.574,364.914ZM338.322,385.061C341.581,389.295 344.848,393.519 348.25,397.709C337.644,402.218 327.778,406.278 320.227,409.043C316.724,404.745 313.392,400.487 310.098,396.252C317.626,393.562 327.489,389.595 338.322,385.061ZM475.109,399.063C483.994,407.081 493.66,415.283 504.102,423.721C501.011,425.701 497.991,427.663 494.74,429.684C484.335,421.175 474.743,412.911 465.885,404.82C468.966,402.943 472.039,401.021 475.109,399.063ZM354.646,405.43C358.036,409.442 361.475,413.38 364.965,417.213C354.342,422.152 344.801,426.472 337.645,429.496C333.987,425.385 330.374,421.234 326.852,417.047C334.365,414.216 344.143,410.053 354.646,405.43ZM459.582,408.613C468.548,416.834 478.181,425.092 488.553,433.449C485.381,435.386 482.212,437.32 478.955,439.258C468.795,430.809 459.298,422.394 450.34,413.959C453.409,412.219 456.489,410.443 459.582,408.613ZM443.732,417.643C452.351,425.805 461.711,434.318 472.018,443.332C469.039,445.073 466.053,446.797 463.053,448.51C452.468,439.903 442.75,431.443 433.695,423.051C437.005,421.308 440.349,419.505 443.732,417.643ZM372.154,424.865C375.881,428.716 379.642,432.444 383.437,435.939C373.021,441.115 363.744,445.597 356.063,449.131C352.283,445.343 348.542,441.408 344.834,437.41C352.408,434.123 361.838,429.762 372.154,424.865ZM427.217,426.43C436.116,434.737 445.777,443.311 456.42,452.283C453.081,454.156 449.782,455.951 446.477,457.754C435.853,449.161 425.946,440.486 416.664,431.697C420.11,430.016 423.621,428.27 427.217,426.43ZM409.729,435.035C418.87,443.891 428.631,452.788 439.078,461.781C435.815,463.521 432.68,465.12 429.514,466.752C418.714,457.566 408.706,448.559 399.482,439.684C402.834,438.185 406.123,436.737 409.729,435.035Z" style="fill:url(#_Radial11);fill-rule:nonzero;"/>
    <path id="Stencil4" serif:id="Stencil" d="M475.272,147.219C418.007,179.661 292.592,228.718 166.125,249.451C240.29,441.926 366.71,556.135 514.01,622.084C613.256,546.654 676.979,497.972 775.133,407.238C587.663,346.674 511.755,218.143 475.272,147.219ZM368.691,265.09C375.465,276.431 382.147,287.348 388.861,297.65C385.798,299.102 382.736,300.544 379.377,302.055C372.625,291.634 365.884,280.59 359.037,269.109C362.323,267.75 365.804,266.347 368.691,265.09ZM352.461,271.832C359.292,283.26 366.077,294.342 372.934,304.893C369.734,306.293 366.562,307.67 363.234,309.074C356.188,298.358 349.267,287.297 342.35,275.781C345.801,274.445 349.191,273.146 352.461,271.832ZM335.596,278.379C342.632,290.245 349.424,301.518 356.117,312.031C358.087,315.126 360.071,318.179 362.055,321.193C364.925,325.555 367.826,329.86 370.777,334.098C371.013,334.436 371.244,334.781 371.48,335.119C368.179,336.734 364.851,338.396 361.658,339.859C361.331,339.388 361.004,338.914 360.678,338.441C357.724,334.164 354.806,329.835 351.924,325.451C349.91,322.388 347.901,319.289 345.908,316.166C338.995,305.332 332.12,293.972 325.152,282.246C328.691,280.959 332.079,279.708 335.596,278.379ZM318.225,284.717C325.312,296.709 332.158,308.138 338.93,318.908C335.497,320.24 332.196,321.491 328.877,322.73C321.78,311.605 314.807,300.107 307.826,288.365C311.199,287.23 314.712,285.959 318.225,284.717ZM300.391,290.826C307.257,302.788 314.171,314.333 321.271,325.543C317.526,326.894 314.095,328.068 310.699,329.215C303.583,317.962 296.541,306.268 289.385,294.168C292.831,293.178 296.462,292.087 300.391,290.826ZM426.721,291.764C429.302,295.647 432.225,299.806 435.404,304.152C428.141,307.899 420.148,311.817 411.615,315.834C408.219,311.267 405.234,307.148 402.59,303.404C411.224,299.415 419.338,295.509 426.721,291.764ZM440.928,311.543C443.97,315.531 447.144,319.585 450.467,323.689C443.292,327.512 435.391,331.533 426.957,335.67C423.547,331.413 420.354,327.328 417.285,323.314C425.761,319.257 433.703,315.31 440.928,311.543ZM455.363,329.658C458.654,333.613 462.021,337.532 465.422,341.398C458.339,345.31 450.403,349.487 441.988,353.799C438.532,349.816 435.251,345.829 431.969,341.832C440.315,337.62 448.253,333.519 455.363,329.658ZM307.639,342.926C310.584,347.138 313.674,351.504 316.912,356.061C305.779,360.33 295.726,364.033 288.104,366.557C284.733,361.767 281.647,357.29 278.875,353.146C286.399,350.725 296.384,347.147 307.639,342.926ZM471.018,347.668C474.349,351.335 477.675,354.88 480.969,358.275C473.98,362.265 466.109,366.572 457.76,371.031C454.407,367.564 451.065,363.998 447.762,360.324C456.13,355.906 464.006,351.637 471.018,347.668ZM322.805,364.295C325.98,368.688 329.225,373.137 332.607,377.646C321.496,382.108 311.593,385.898 304.107,388.437C300.624,383.838 297.274,379.347 294.131,375.008C301.764,372.414 311.798,368.617 322.805,364.295ZM487.574,364.914C491.391,368.645 495.083,372.044 498.619,375.096C491.603,379.052 483.865,383.339 475.496,387.9C471.893,384.817 468.238,381.435 464.563,377.857C472.862,373.322 480.651,368.952 487.574,364.914ZM338.322,385.061C341.581,389.295 344.848,393.519 348.25,397.709C337.644,402.218 327.778,406.278 320.227,409.043C316.724,404.745 313.392,400.487 310.098,396.252C317.626,393.562 327.489,389.595 338.322,385.061ZM475.109,399.063C483.994,407.081 493.66,415.283 504.102,423.721C501.011,425.701 497.991,427.663 494.74,429.684C484.335,421.175 474.743,412.911 465.885,404.82C468.966,402.943 472.039,401.021 475.109,399.063ZM354.646,405.43C358.036,409.442 361.475,413.38 364.965,417.213C354.342,422.152 344.801,426.472 337.645,429.496C333.987,425.385 330.374,421.234 326.852,417.047C334.365,414.216 344.143,410.053 354.646,405.43ZM459.582,408.613C468.548,416.834 478.181,425.092 488.553,433.449C485.381,435.386 482.212,437.32 478.955,439.258C468.795,430.809 459.298,422.394 450.34,413.959C453.409,412.219 456.489,410.443 459.582,408.613ZM443.732,417.643C452.351,425.805 461.711,434.318 472.018,443.332C469.039,445.073 466.053,446.797 463.053,448.51C452.468,439.903 442.75,431.443 433.695,423.051C437.005,421.308 440.349,419.505 443.732,417.643ZM372.154,424.865C375.881,428.716 379.642,432.444 383.437,435.939C373.021,441.115 363.744,445.597 356.063,449.131C352.283,445.343 348.542,441.408 344.834,437.41C352.408,434.123 361.838,429.762 372.154,424.865ZM427.217,426.43C436.116,434.737 445.777,443.311 456.42,452.283C453.081,454.156 449.782,455.951 446.477,457.754C435.853,449.161 425.946,440.486 416.664,431.697C420.11,430.016 423.621,428.27 427.217,426.43ZM409.729,435.035C418.87,443.891 428.631,452.788 439.078,461.781C435.815,463.521 432.68,465.12 429.514,466.752C418.714,457.566 408.706,448.559 399.482,439.684C402.834,438.185 406.123,436.737 409.729,435.035Z" style="fill:url(#_Radial12);fill-rule:nonzero;"/>
    <path id="Stencil5" serif:id="Stencil" d="M475.272,147.219C418.007,179.661 292.592,228.718 166.125,249.451C240.29,441.926 366.71,556.135 514.01,622.084C613.256,546.654 676.979,497.972 775.133,407.238C587.663,346.674 511.755,218.143 475.272,147.219ZM368.691,265.09C375.465,276.431 382.147,287.348 388.861,297.65C385.798,299.102 382.736,300.544 379.377,302.055C372.625,291.634 365.884,280.59 359.037,269.109C362.323,267.75 365.804,266.347 368.691,265.09ZM352.461,271.832C359.292,283.26 366.077,294.342 372.934,304.893C369.734,306.293 366.562,307.67 363.234,309.074C356.188,298.358 349.267,287.297 342.35,275.781C345.801,274.445 349.191,273.146 352.461,271.832ZM335.596,278.379C342.632,290.245 349.424,301.518 356.117,312.031C358.087,315.126 360.071,318.179 362.055,321.193C364.925,325.555 367.826,329.86 370.777,334.098C371.013,334.436 371.244,334.781 371.48,335.119C368.179,336.734 364.851,338.396 361.658,339.859C361.331,339.388 361.004,338.914 360.678,338.441C357.724,334.164 354.806,329.835 351.924,325.451C349.91,322.388 347.901,319.289 345.908,316.166C338.995,305.332 332.12,293.972 325.152,282.246C328.691,280.959 332.079,279.708 335.596,278.379ZM318.225,284.717C325.312,296.709 332.158,308.138 338.93,318.908C335.497,320.24 332.196,321.491 328.877,322.73C321.78,311.605 314.807,300.107 307.826,288.365C311.199,287.23 314.712,285.959 318.225,284.717ZM300.391,290.826C307.257,302.788 314.171,314.333 321.271,325.543C317.526,326.894 314.095,328.068 310.699,329.215C303.583,317.962 296.541,306.268 289.385,294.168C292.831,293.178 296.462,292.087 300.391,290.826ZM426.721,291.764C429.302,295.647 432.225,299.806 435.404,304.152C428.141,307.899 420.148,311.817 411.615,315.834C408.219,311.267 405.234,307.148 402.59,303.404C411.224,299.415 419.338,295.509 426.721,291.764ZM440.928,311.543C443.97,315.531 447.144,319.585 450.467,323.689C443.292,327.512 435.391,331.533 426.957,335.67C423.547,331.413 420.354,327.328 417.285,323.314C425.761,319.257 433.703,315.31 440.928,311.543ZM455.363,329.658C458.654,333.613 462.021,337.532 465.422,341.398C458.339,345.31 450.403,349.487 441.988,353.799C438.532,349.816 435.251,345.829 431.969,341.832C440.315,337.62 448.253,333.519 455.363,329.658ZM307.639,342.926C310.584,347.138 313.674,351.504 316.912,356.061C305.779,360.33 295.726,364.033 288.104,366.557C284.733,361.767 281.647,357.29 278.875,353.146C286.399,350.725 296.384,347.147 307.639,342.926ZM471.018,347.668C474.349,351.335 477.675,354.88 480.969,358.275C473.98,362.265 466.109,366.572 457.76,371.031C454.407,367.564 451.065,363.998 447.762,360.324C456.13,355.906 464.006,351.637 471.018,347.668ZM322.805,364.295C325.98,368.688 329.225,373.137 332.607,377.646C321.496,382.108 311.593,385.898 304.107,388.437C300.624,383.838 297.274,379.347 294.131,375.008C301.764,372.414 311.798,368.617 322.805,364.295ZM487.574,364.914C491.391,368.645 495.083,372.044 498.619,375.096C491.603,379.052 483.865,383.339 475.496,387.9C471.893,384.817 468.238,381.435 464.563,377.857C472.862,373.322 480.651,368.952 487.574,364.914ZM338.322,385.061C341.581,389.295 344.848,393.519 348.25,397.709C337.644,402.218 327.778,406.278 320.227,409.043C316.724,404.745 313.392,400.487 310.098,396.252C317.626,393.562 327.489,389.595 338.322,385.061ZM475.109,399.063C483.994,407.081 493.66,415.283 504.102,423.721C501.011,425.701 497.991,427.663 494.74,429.684C484.335,421.175 474.743,412.911 465.885,404.82C468.966,402.943 472.039,401.021 475.109,399.063ZM354.646,405.43C358.036,409.442 361.475,413.38 364.965,417.213C354.342,422.152 344.801,426.472 337.645,429.496C333.987,425.385 330.374,421.234 326.852,417.047C334.365,414.216 344.143,410.053 354.646,405.43ZM459.582,408.613C468.548,416.834 478.181,425.092 488.553,433.449C485.381,435.386 482.212,437.32 478.955,439.258C468.795,430.809 459.298,422.394 450.34,413.959C453.409,412.219 456.489,410.443 459.582,408.613ZM443.732,417.643C452.351,425.805 461.711,434.318 472.018,443.332C469.039,445.073 466.053,446.797 463.053,448.51C452.468,439.903 442.75,431.443 433.695,423.051C437.005,421.308 440.349,419.505 443.732,417.643ZM372.154,424.865C375.881,428.716 379.642,432.444 383.437,435.939C373.021,441.115 363.744,445.597 356.063,449.131C352.283,445.343 348.542,441.408 344.834,437.41C352.408,434.123 361.838,429.762 372.154,424.865ZM427.217,426.43C436.116,434.737 445.777,443.311 456.42,452.283C453.081,454.156 449.782,455.951 446.477,457.754C435.853,449.161 425.946,440.486 416.664,431.697C420.11,430.016 423.621,428.27 427.217,426.43ZM409.729,435.035C418.87,443.891 428.631,452.788 439.078,461.781C435.815,463.521 432.68,465.12 429.514,466.752C418.714,457.566 408.706,448.559 399.482,439.684C402.834,438.185 406.123,436.737 409.729,435.035Z" style="fill:url(#_Radial13);fill-rule:nonzero;"/>
    <defs>
        <linearGradient id="_Linear1" x1="0" y1="0" x2="1" y2="0" gradientUnits="userSpaceOnUse" gradientTransform="matrix(326.273,193.714,-193.714,326.273,28.8889,445.755)"><stop offset="0" style="stop-color:#55997c;stop-opacity:1"/><stop offset="0.23" style="stop-color:#509476;stop-opacity:1"/><stop offset="0.49" style="stop-color:#4b8e70;stop-opacity:1"/><stop offset="0.75" style="stop-color:#488a6c;stop-opacity:1"/><stop offset="1" style="stop-color:#418164;stop-opacity:1"/></linearGradient>
        <linearGradient id="_Linear2" x1="0" y1="0" x2="1" y2="0" gradientUnits="userSpaceOnUse" gradientTransform="matrix(-20.6005,36.5789,-36.5789,-20.6005,208.472,516.306)"><stop offset="0" style="stop-color:#fff;stop-opacity:0.06"/><stop offset="1" style="stop-color:#fff;stop-opacity:0"/></linearGradient>
        <linearGradient id="_Linear3" x1="0" y1="0" x2="1" y2="0" gradientUnits="userSpaceOnUse" gradientTransform="matrix(96.1441,-75.4447,75.4447,96.1441,356.64,649)"><stop offset="0" style="stop-color:#3c7a5e;stop-opacity:1"/><stop offset="1" style="stop-color:#295c43;stop-opacity:1"/></linearGradient>
        <radialGradient id="_Radial4" cx="0" cy="0" r="1" gradientUnits="userSpaceOnUse" gradientTransform="matrix(81.1524,2.3306,-0.561396,19.548,-79.6246,714.326)"><stop offset="0" style="stop-color:#fff;stop-opacity:0.13"/><stop offset="0.76" style="stop-color:#fff;stop-opacity:0.08"/><stop offset="1" style="stop-color:#fff;stop-opacity:0"/></radialGradient>
        <linearGradient id="_Linear5" x1="0" y1="0" x2="1" y2="0" gradientUnits="userSpaceOnUse" gradientTransform="matrix(1.12891,353.729,-353.729,1.12891,355.111,272.546)"><stop offset="0" style="stop-color:#116030;stop-opacity:1"/><stop offset="0.5" style="stop-color:#146835;stop-opacity:1"/><stop offset="1" style="stop-color:#16723c;stop-opacity:1"/></linearGradient>
        <linearGradient id="_Linear6" x1="0" y1="0" x2="1" y2="0" gradientUnits="userSpaceOnUse" gradientTransform="matrix(41.3146,-47.3282,47.3282,41.3146,350.466,597.239)"><stop offset="0" style="stop-color:#414141;stop-opacity:0"/><stop offset="1" style="stop-color:#161616;stop-opacity:0.75"/></linearGradient>
        <linearGradient id="_Linear7" x1="0" y1="0" x2="1" y2="0" gradientUnits="userSpaceOnUse" gradientTransform="matrix(11.6391,8.42916,-8.42916,11.6391,299.205,474.608)"><stop offset="0" style="stop-color:#4f5b0c;stop-opacity:1"/><stop offset="1" style="stop-color:#7f8400;stop-opacity:1"/></linearGradient>
        <radialGradient id="_Radial8" cx="0" cy="0" r="1" gradientUnits="userSpaceOnUse" gradientTransform="matrix(196.041,233.004,-1112.07,935.65,589.302,302.261)"><stop offset="0" style="stop-color:#9f9fa0;stop-opacity:1"/><stop offset="0.04" style="stop-color:#838384;stop-opacity:1"/><stop offset="0.07" style="stop-color:#9d9e9f;stop-opacity:1"/><stop offset="0.11" style="stop-color:#808182;stop-opacity:1"/><stop offset="0.15" style="stop-color:#a2a2a3;stop-opacity:1"/><stop offset="0.18" style="stop-color:#878788;stop-opacity:1"/><stop offset="0.23" style="stop-color:#a6a6a7;stop-opacity:1"/><stop offset="0.28" style="stop-color:#8a8a8b;stop-opacity:1"/><stop offset="0.32" style="stop-color:#a9a9aa;stop-opacity:1"/><stop offset="0.36" style="stop-color:#858586;stop-opacity:1"/><stop offset="0.4" style="stop-color:#aaaaab;stop-opacity:1"/><stop offset="0.44" style="stop-color:#88898a;stop-opacity:1"/><stop offset="0.49" style="stop-color:#a9a9aa;stop-opacity:1"/><stop offset="0.54" style="stop-color:#8f9091;stop-opacity:1"/><stop offset="0.57" style="stop-color:#ababac;stop-opacity:1"/><stop offset="0.6" style="stop-color:#8d8d8e;stop-opacity:1"/><stop offset="0.64" style="stop-color:#adaeaf;stop-opacity:1"/><stop offset="0.68" style="stop-color:#919192;stop-opacity:1"/><stop offset="0.72" style="stop-color:#b0b0b1;stop-opacity:1"/><stop offset="0.76" style="stop-color:#929394;stop-opacity:1"/><stop offset="0.81" style="stop-color:#acadae;stop-opacity:1"/><stop offset="0.85" style="stop-color:#949596;stop-opacity:1"/><stop offset="0.9" style="stop-color:#a9aaaa;stop-opacity:1"/><stop offset="0.94" style="stop-color:#969798;stop-opacity:1"/><stop offset="0.97" style="stop-color:#a9a9aa;stop-opacity:1"/><stop offset="1" style="stop-color:#959697;stop-opacity:1"/></radialGradient>
        <linearGradient id="_Linear9" x1="0" y1="0" x2="1" y2="0" gradientUnits="userSpaceOnUse" gradientTransform="matrix(297.586,-162.514,162.514,297.586,287.066,462.507)"><stop offset="0" style="stop-color:#aaabac;stop-opacity:1"/><stop offset="1" style="stop-color:#b1b2b2;stop-opacity:0.83"/></linearGradient>
        <radialGradient id="_Radial10" cx="0" cy="0" r="1" gradientUnits="userSpaceOnUse" gradientTransform="matrix(265.711,-148.729,36.2865,64.8271,367.922,534.381)"><stop offset="0" style="stop-color:#bfbfc0;stop-opacity:1"/><stop offset="1" style="stop-color:#cccdcd;stop-opacity:0"/></radialGradient>
        <radialGradient id="_Radial11" cx="0" cy="0" r="1" gradientUnits="userSpaceOnUse" gradientTransform="matrix(-261.926,-76.0714,7.93222,-27.312,696.525,461.466)"><stop offset="0" style="stop-color:#cbcbcc;stop-opacity:0.71"/><stop offset="1" style="stop-color:#b9baba;stop-opacity:0"/></radialGradient>
        <radialGradient id="_Radial12" cx="0" cy="0" r="1" gradientUnits="userSpaceOnUse" gradientTransform="matrix(-227.75,150.074,-187.585,-284.676,475.072,148.239)"><stop offset="0" style="stop-color:#434343;stop-opacity:0.71"/><stop offset="1" style="stop-color:#525353;stop-opacity:0"/></radialGradient>
        <radialGradient id="_Radial13" cx="0" cy="0" r="1" gradientUnits="userSpaceOnUse" gradientTransform="matrix(86.0798,363.343,-158.057,37.4454,73.1032,188.519)"><stop offset="0" style="stop-color:#434343;stop-opacity:0.71"/><stop offset="1" style="stop-color:#525353;stop-opacity:0"/></radialGradient>
    </defs>
</svg>
