<?xml version="1.0" encoding="utf-8"?>
<!-- Generator: Adobe Illustrator 16.0.0, SVG Export Plug-In . SVG Version: 6.00 Build 0)  -->
<!DOCTYPE svg PUBLIC "-//W3C//DTD SVG 1.0//EN" "http://www.w3.org/TR/2001/REC-SVG-20010904/DTD/svg10.dtd">
<svg version="1.0" id="Layer_1" xmlns="http://www.w3.org/2000/svg" xmlns:xlink="http://www.w3.org/1999/xlink" x="0px" y="0px"
	 width="32px" height="32px" viewBox="0 0 32 32" enable-background="new 0 0 32 32" xml:space="preserve">
<polygon fill="#F6F6F6" points="12,4 12,0 4,0 4,4 0,4 0,12 4,12 4,32 20,32 20,26 26,26 26,20 32,20 32,4 "/>
<polygon fill="#424242" points="16,24 16,28 8,28 8,20 12,20 12,18 6,18 6,30 18,30 18,24 "/>
<polygon fill="#424242" points="12,18 12,20 16,20 16,24 18,24 18,18 "/>
<polygon fill="#424242" points="12,12 12,18 14,18 14,14 22,14 22,22 18,22 18,24 24,24 24,12 "/>
<polygon fill="#424242" points="18,6 18,12 20,12 20,8 28,8 28,16 24,16 24,18 30,18 30,6 "/>
<polygon fill="#388A34" points="10,7 10,2 7,2 7,6 6,6 6,7 2,7 2,10 7,10 7,14 10,14 10,10 14,10 14,7 "/>
<rect x="10" y="6" fill="#3E8E3A" width="4" height="1"/>
<rect x="6" y="2" fill="#3E8E3A" width="1" height="4"/>
<rect x="2" y="6" fill="#3E8E3A" width="4" height="1"/>
<rect x="6" y="10" fill="#3E8E3A" width="1" height="4"/>
<g>
</g>
<g>
</g>
<g>
</g>
<g>
</g>
<g>
</g>
<g>
</g>
<g>
</g>
<g>
</g>
<g>
</g>
<g>
</g>
<g>
</g>
<g>
</g>
<g>
</g>
<g>
</g>
<g>
</g>
</svg>
