<?xml version="1.0" encoding="utf-8"?>
<!-- Generator: Adobe Illustrator 16.0.0, SVG Export Plug-In . SVG Version: 6.00 Build 0)  -->
<!DOCTYPE svg PUBLIC "-//W3C//DTD SVG 1.0//EN" "http://www.w3.org/TR/2001/REC-SVG-20010904/DTD/svg10.dtd">
<svg version="1.0" id="Layer_1" xmlns="http://www.w3.org/2000/svg" xmlns:xlink="http://www.w3.org/1999/xlink" x="0px" y="0px"
	 width="32px" height="32px" viewBox="0 0 32 32" enable-background="new 0 0 32 32" xml:space="preserve">
<polygon fill="#F6F6F6" points="26.667,15.146 24.546,13.025 29.496,8.075 28.788,4.54 25.96,1.711 22.425,1.004 17.475,5.954 
	15.354,3.833 10.404,8.782 12.525,10.904 4.04,19.389 1.211,26.46 4.04,29.288 11.111,26.46 19.596,17.975 21.718,20.096 "/>
<polygon fill="#424242" points="21.718,13.025 27.324,7.418 26.946,5.526 24.974,3.554 23.082,3.175 17.475,8.782 15.354,6.661 
	13.232,8.782 21.718,17.268 23.839,15.146 "/>
<polygon fill="#424242" points="16.768,15.146 8.99,22.925 7.575,21.511 15.354,13.732 13.939,12.318 5.744,20.514 3.558,25.979 
	4.521,26.941 9.987,24.756 18.182,16.561 "/>
<rect x="14.354" y="14.147" transform="matrix(0.7071 0.7071 -0.7071 0.7071 15.2071 -6.4203)" fill="#424242" width="2" height="2"/>
<g>
</g>
<g>
</g>
<g>
</g>
<g>
</g>
<g>
</g>
<g>
</g>
<g>
</g>
<g>
</g>
<g>
</g>
<g>
</g>
<g>
</g>
<g>
</g>
<g>
</g>
<g>
</g>
<g>
</g>
</svg>
