<?xml version="1.0" encoding="utf-8"?>
<!-- Generator: Adobe Illustrator 16.0.0, SVG Export Plug-In . SVG Version: 6.00 Build 0)  -->
<!DOCTYPE svg PUBLIC "-//W3C//DTD SVG 1.0//EN" "http://www.w3.org/TR/2001/REC-SVG-20010904/DTD/svg10.dtd">
<svg version="1.0" id="Layer_1" xmlns="http://www.w3.org/2000/svg" xmlns:xlink="http://www.w3.org/1999/xlink" x="0px" y="0px"
	 width="32px" height="32px" viewBox="0 0 32 32" enable-background="new 0 0 32 32" xml:space="preserve">
<path fill="#F0F0F0" d="M32,12c0-6.627-5.373-12-12-12C13.372,0,8,5.373,8,12H0v20h24v-8.697C28.657,21.653,32,17.223,32,12z"/>
<rect x="2" y="14" fill="#424242" width="20" height="4"/>
<polygon fill="#424242" points="20,18 20,28 4,28 4,18 2,18 2,30 22,30 22,18 "/>
<path fill="#424242" d="M20,2c-5.514,0-10,4.486-10,10h2c0-4.411,3.588-8,8-8s8,3.589,8,8c0,2.953-1.613,5.531-4,6.918v2.241
	c3.527-1.547,6-5.068,6-9.159C30,6.486,25.514,2,20,2z"/>
<rect x="24" y="14" fill="#424242" width="5" height="2"/>
<path fill="#424242" d="M29,8h-5.461c-0.229-1.417-0.572-2.794-1.024-4.122l-2.362-0.59C20.768,4.787,21.23,6.364,21.52,8h-3.037
	c0.29-1.635,0.747-3.213,1.363-4.711l-2.349,0.587C17.04,5.204,16.693,6.583,16.46,8H11v2h5.211c-0.054,0.66-0.086,1.326-0.086,2h2
	c0-0.674,0.034-1.34,0.092-2h3.565c0.058,0.66,0.093,1.326,0.093,2h2c0-0.674-0.037-1.339-0.09-2H29V8z"/>
<g>
</g>
<g>
</g>
<g>
</g>
<g>
</g>
<g>
</g>
<g>
</g>
<g>
</g>
<g>
</g>
<g>
</g>
<g>
</g>
<g>
</g>
<g>
</g>
<g>
</g>
<g>
</g>
<g>
</g>
</svg>
