<?xml version="1.0" encoding="utf-8"?>
<!-- Generator: Adobe Illustrator 16.0.0, SVG Export Plug-In . SVG Version: 6.00 Build 0)  -->
<!DOCTYPE svg PUBLIC "-//W3C//DTD SVG 1.0//EN" "http://www.w3.org/TR/2001/REC-SVG-20010904/DTD/svg10.dtd">
<svg version="1.0" id="Layer_1" xmlns="http://www.w3.org/2000/svg" xmlns:xlink="http://www.w3.org/1999/xlink" x="0px" y="0px"
	 width="32px" height="32px" viewBox="0 0 32 32" enable-background="new 0 0 32 32" xml:space="preserve">
<polygon fill="#F6F6F6" points="12,4 12,0 4,0 4,4 0,4 0,12 4,12 4,32 32,32 32,4 "/>
<polygon fill="#388A34" points="10,7 10,2 7,2 7,6 6,6 6,7 2,7 2,10 7,10 7,14 10,14 10,10 14,10 14,7 "/>
<rect x="10" y="6" fill="#3E8E3A" width="4" height="1"/>
<rect x="6" y="2" fill="#3E8E3A" width="1" height="4"/>
<rect x="2" y="6" fill="#3E8E3A" width="4" height="1"/>
<rect x="6" y="10" fill="#3E8E3A" width="1" height="4"/>
<polygon fill="#424242" points="15,8 15,9 29,9 29,29 9,29 9,16 8,16 8,30 30,30 30,8 "/>
<polygon fill="#9D9D9D" points="21.999,19.672 19.714,19.104 20.033,20 17.528,20 17.935,18.81 17.305,18.768 20.262,13 17.303,13 
	13.543,25 16.188,25 16.897,23 20.664,23 21.373,25 24.084,25 22.248,19.172 "/>
<polygon fill="#000000" opacity="0.5" points="25.331,17.782 23.09,17.412 21.999,19.672 19.163,19.203 18.305,20.896 22.999,21.672 24.09,19.412 
	25.563,19.655 "/>
<polygon fill="#000000" opacity="0.5" points="29.327,8.625 28.597,8.504 30.397,21.058 26.407,20.399 26.639,22.272 31.397,23.058 "/>
<polygon fill="#FFFFFF" points="25.639,20.272 25.331,17.782 23.09,17.412 21.999,19.672 17.305,18.896 23.9,5.894 28.327,6.625 
	30.397,21.058 "/>
<polygon points="26.231,16.917 22.515,16.304 21.424,18.563 18.813,18.132 24.461,7 25.423,10.25 23.492,14.253 25.964,14.661 "/>
<polygon points="24.461,7 27.441,7.492 29.214,19.849 26.539,19.407 25.423,10.25 "/>
<g>
</g>
<g>
</g>
<g>
</g>
<g>
</g>
<g>
</g>
<g>
</g>
<g>
</g>
<g>
</g>
<g>
</g>
<g>
</g>
<g>
</g>
<g>
</g>
<g>
</g>
<g>
</g>
<g>
</g>
</svg>
