<?xml version="1.0" encoding="utf-8"?>
<!-- Generator: Adobe Illustrator 16.0.0, SVG Export Plug-In . SVG Version: 6.00 Build 0)  -->
<!DOCTYPE svg PUBLIC "-//W3C//DTD SVG 1.0//EN" "http://www.w3.org/TR/2001/REC-SVG-20010904/DTD/svg10.dtd">
<svg version="1.0" id="Layer_1" xmlns="http://www.w3.org/2000/svg" xmlns:xlink="http://www.w3.org/1999/xlink" x="0px" y="0px"
	 width="200px" height="200px" viewBox="0 0 200 200" enable-background="new 0 0 200 200" xml:space="preserve">
<polygon points="56,0 56,13 167.342,13 193,0 "/>
<polygon points="69,106.799 68.799,107 56,107 56,163 118,163 118,150 69,150 "/>
<polygon points="118,200 193,162 193,0 118,38 "/>
<polygon fill="#F6F6F6" points="7.201,107 29.201,85 0,85 0,35 29.201,35 7.201,13 68.799,13 115.799,60 68.799,107 "/>
<polygon fill="#A1260D" points="62,27 40,27 62,49 13,49 13,71 62,71 40,93 62,93 95,60 "/>
<g>
</g>
<g>
</g>
<g>
</g>
<g>
</g>
<g>
</g>
<g>
</g>
<g>
</g>
<g>
</g>
<g>
</g>
<g>
</g>
<g>
</g>
<g>
</g>
<g>
</g>
<g>
</g>
<g>
</g>
</svg>
