<?xml version="1.0" encoding="utf-8"?>
<!-- Generator: Adobe Illustrator 16.0.0, SVG Export Plug-In . SVG Version: 6.00 Build 0)  -->
<!DOCTYPE svg PUBLIC "-//W3C//DTD SVG 1.0//EN" "http://www.w3.org/TR/2001/REC-SVG-20010904/DTD/svg10.dtd">
<svg version="1.0" id="Layer_1" xmlns="http://www.w3.org/2000/svg" xmlns:xlink="http://www.w3.org/1999/xlink" x="0px" y="0px"
	 width="32px" height="32px" viewBox="0 0 32 32" enable-background="new 0 0 32 32" xml:space="preserve">
<polygon fill="#F6F6F6" points="14.828,4 10.829,0 1.171,0 5.171,4 0,4 0,12 5.171,12 1.171,16 6,16 6,28 30,28 30,4 "/>
<polygon fill="#00539C" points="10,2 6,2 10,6 2,6 2,10 10,10 6,14 10,14 16,8 "/>
<polygon fill="#424242" points="16.828,6 18.828,8 26,8 26,24 10,24 10,16 8,16 8,26 28,26 28,6 "/>
<circle fill="#424242" cx="19.923" cy="11.861" r="1.9"/>
<polygon fill="#424242" points="10,21.428 12.672,19.262 14.045,17.698 17.439,20.339 19.655,20.971 21.899,19.955 22.568,19.797 
	23.942,20.924 26,20.621 26,18.095 24.673,18.289 23.197,17.078 21.206,17.551 19.46,18.314 18.605,18.071 16.747,16.595 
	13.671,14.301 11.011,17.391 10,18.21 "/>
<g>
</g>
<g>
</g>
<g>
</g>
<g>
</g>
<g>
</g>
<g>
</g>
<g>
</g>
<g>
</g>
<g>
</g>
<g>
</g>
<g>
</g>
<g>
</g>
<g>
</g>
<g>
</g>
<g>
</g>
</svg>
