<?xml version="1.0" encoding="utf-8"?>
<!-- Generator: Adobe Illustrator 16.0.0, SVG Export Plug-In . SVG Version: 6.00 Build 0)  -->
<!DOCTYPE svg PUBLIC "-//W3C//DTD SVG 1.0//EN" "http://www.w3.org/TR/2001/REC-SVG-20010904/DTD/svg10.dtd">
<svg version="1.0" id="Layer_1" xmlns="http://www.w3.org/2000/svg" xmlns:xlink="http://www.w3.org/1999/xlink" x="0px" y="0px"
	 width="32px" height="32px" viewBox="0 0 32 32" enable-background="new 0 0 32 32" xml:space="preserve">
<path fill="#F6F6F6" d="M2,32c-0.28,0-0.561-0.059-0.826-0.179C0.459,31.497,0,30.785,0,30V2c0-0.785,0.459-1.497,1.173-1.821
	C1.438,0.059,1.72,0,2,0c0.476,0,0.946,0.169,1.317,0.495l16,14C19.751,14.875,20,15.423,20,16s-0.249,1.125-0.683,1.505l-16,14
	C2.945,31.83,2.475,32,2,32z"/>
<polygon fill="#424242" points="2,30 2,2 18,16 "/>
<g>
</g>
<g>
</g>
<g>
</g>
<g>
</g>
<g>
</g>
<g>
</g>
<g>
</g>
<g>
</g>
<g>
</g>
<g>
</g>
<g>
</g>
<g>
</g>
<g>
</g>
<g>
</g>
<g>
</g>
</svg>
