<?xml version="1.0" encoding="utf-8"?>
<!-- Generator: Adobe Illustrator 16.0.0, SVG Export Plug-In . SVG Version: 6.00 Build 0)  -->
<!DOCTYPE svg PUBLIC "-//W3C//DTD SVG 1.0//EN" "http://www.w3.org/TR/2001/REC-SVG-20010904/DTD/svg10.dtd">
<svg version="1.0" id="Layer_1" xmlns="http://www.w3.org/2000/svg" xmlns:xlink="http://www.w3.org/1999/xlink" x="0px" y="0px"
	 width="32px" height="32px" viewBox="0 0 32 32" enable-background="new 0 0 32 32" xml:space="preserve">
<path fill="#F6F6F6" d="M8.111,25C7.007,25,6,24.315,6,23.211V15H4.717C3.613,15,3,13.938,3,12.833v-1.487
	c0-1.096,0.74-1.988,1.836-2C5.958,9.334,6.294,9.102,6.393,9.03c0.146-0.105,0.206-0.114,0.249-0.492C6.756,7.527,7.576,7,8.593,7
	h1.436C11.133,7,12,7.422,12,8.527v14.684C12,24.315,11.133,25,10.029,25H8.111z"/>
<path fill="#00539C" d="M8.111,23.211V12.833H4.717v-1.487c1.23-0.014,2.157-0.246,2.779-0.697s0.988-1.159,1.097-2.123h1.436
	v14.684H8.111z"/>
<path fill="#F6F6F6" d="M19,23c0,1.104-0.896,2-2,2h-2c-1.104,0-2-0.896-2-2v-2c0-1.104,0.896-2,2-2h2c1.104,0,2,0.896,2,2V23z"/>
<rect x="14.938" y="20.856" fill="#424242" width="2.123" height="2.287"/>
<path fill="#F6F6F6" d="M19,14c0,1.104-0.896,2-2,2h-2c-1.104,0-2-0.896-2-2v-2c0-1.104,0.896-2,2-2h2c1.104,0,2,0.896,2,2V14z"/>
<rect x="14.938" y="11.867" fill="#424242" width="2.123" height="2.266"/>
<path fill="#F6F6F6" d="M23.371,25C22.267,25,21,24.315,21,23.211V15h-1.022C18.873,15,18,13.938,18,12.833v-1.487
	c0-1.096-0.179-1.988,0.917-2c1.121-0.012,2.048-0.245,2.146-0.316c0.145-0.105,0.5-0.114,0.543-0.492
	C21.721,7.527,22.835,7,23.853,7h1.436C26.393,7,27,7.422,27,8.527v14.684C27,24.315,26.393,25,25.288,25H23.371z"/>
<path fill="#00539C" d="M23.371,23.211V12.833h-3.394v-1.487c1.23-0.014,2.156-0.246,2.778-0.697s0.987-1.159,1.097-2.123h1.436
	v14.684H23.371z"/>
<g>
</g>
<g>
</g>
<g>
</g>
<g>
</g>
<g>
</g>
<g>
</g>
<g>
</g>
<g>
</g>
<g>
</g>
<g>
</g>
<g>
</g>
<g>
</g>
<g>
</g>
<g>
</g>
<g>
</g>
</svg>
