<?xml version="1.0" encoding="utf-8"?>
<!-- Generator: Adobe Illustrator 16.0.0, SVG Export Plug-In . SVG Version: 6.00 Build 0)  -->
<!DOCTYPE svg PUBLIC "-//W3C//DTD SVG 1.0//EN" "http://www.w3.org/TR/2001/REC-SVG-20010904/DTD/svg10.dtd">
<svg version="1.0" id="Layer_1" xmlns="http://www.w3.org/2000/svg" xmlns:xlink="http://www.w3.org/1999/xlink" x="0px" y="0px"
	 width="32px" height="32px" viewBox="0 0 32 32" enable-background="new 0 0 32 32" xml:space="preserve">
<path fill="#F6F6F6" d="M6,32c-0.818,0-1.553-0.498-1.857-1.257l-4-10c-0.247-0.616-0.171-1.314,0.201-1.864S1.336,18,2,18V8
	c0-1.104,0.896-2,2-2h26c1.104,0,2,0.896,2,2v22c0,1.104-0.896,2-2,2H6z"/>
<path fill="#FBFBFB" d="M7.171,4l-4-4h9.657l7,7l-7,7H10v4H7c-4.01,0-7-3.138-7-6.994c0-3.19,1.926-5.853,5-6.708
	C5,4.298,6.184,3.995,7.171,4z"/>
<path fill="#00539C" d="M12,12l5-5l-5-5H8l4,4H7v0.012c-2.921,0.063-5.272,2.239-5.272,4.994S4.079,16,7,16h1v-2H7l0,0
	c-1.741-0.063-3.139-1.292-3.139-2.939S5.259,8.075,7,8.012V8h5l-4,4H12z"/>
<rect x="25.842" y="29" fill="#DCB67A" width="0.158" height="0"/>
<path fill="#DCB67A" d="M4,17.369V21h2v-3.074C5.296,17.832,4.625,17.644,4,17.369z"/>
<path fill="#DCB67A" d="M27.996,8h-9.168l-2,2H28v17.077V29h-0.919H26.5L22,20H2l5,10h21.494C29.325,30,30,29.325,30,28.494V10.003
	C30,8.896,29.104,8,27.996,8z"/>
<g>
</g>
<g>
</g>
<g>
</g>
<g>
</g>
<g>
</g>
<g>
</g>
<g>
</g>
<g>
</g>
<g>
</g>
<g>
</g>
<g>
</g>
<g>
</g>
<g>
</g>
<g>
</g>
<g>
</g>
</svg>
