<?xml version="1.0" encoding="utf-8"?>
<!-- Generator: Adobe Illustrator 16.0.0, SVG Export Plug-In . SVG Version: 6.00 Build 0)  -->
<!DOCTYPE svg PUBLIC "-//W3C//DTD SVG 1.0//EN" "http://www.w3.org/TR/2001/REC-SVG-20010904/DTD/svg10.dtd">
<svg version="1.0" id="Layer_1" xmlns="http://www.w3.org/2000/svg" xmlns:xlink="http://www.w3.org/1999/xlink" x="0px" y="0px"
	 width="32px" height="32px" viewBox="0 0 32 32" enable-background="new 0 0 32 32" xml:space="preserve">
<path fill="#F6F6F6" d="M3.855,28.144c-1.494-1.494-1.843-3.707-1.047-5.536l-0.231-0.231l1.401-1.427l6.337-6.337
	c-1.149-3.667-0.193-7.739,2.572-10.504c3.11-3.11,7.873-3.931,11.854-2.043l2.563,1.215l-6.355,6.355l1.414,1.414l6.362-6.362
	l1.156,2.735c1.664,3.936,0.789,8.431-2.229,11.45c-2.688,2.688-6.547,3.677-10.141,2.686l-7.876,7.876L9.392,29.19
	C7.563,29.987,5.35,29.639,3.855,28.144z"/>
<path fill="#424242" d="M28.04,8.202l-5.677,5.676l-4.242-4.243l5.764-5.764c-3.134-1.486-6.99-0.942-9.583,1.65
	s-3.137,6.449-1.651,9.583l-7.258,7.258l0.012,0.013c-0.044,0.039-0.094,0.069-0.136,0.111c-1.172,1.172-1.172,3.07,0,4.242
	c1.171,1.172,3.071,1.172,4.242,0c0.042-0.042,0.073-0.092,0.111-0.136l0.013,0.013l7.345-7.346
	c3.072,1.299,6.754,0.701,9.257-1.802S29.338,11.273,28.04,8.202z"/>
<g>
</g>
<g>
</g>
<g>
</g>
<g>
</g>
<g>
</g>
<g>
</g>
<g>
</g>
<g>
</g>
<g>
</g>
<g>
</g>
<g>
</g>
<g>
</g>
<g>
</g>
<g>
</g>
<g>
</g>
</svg>
