<?xml version="1.0" encoding="utf-8"?>
<!-- Generator: Adobe Illustrator 16.0.0, SVG Export Plug-In . SVG Version: 6.00 Build 0)  -->
<!DOCTYPE svg PUBLIC "-//W3C//DTD SVG 1.0//EN" "http://www.w3.org/TR/2001/REC-SVG-20010904/DTD/svg10.dtd">
<svg version="1.0" id="Layer_1" xmlns="http://www.w3.org/2000/svg" xmlns:xlink="http://www.w3.org/1999/xlink" x="0px" y="0px"
	 width="32px" height="32px" viewBox="0 0 32 32" enable-background="new 0 0 32 32" xml:space="preserve">
<path fill="#F6F6F6" d="M29.448,14.185l-0.466-1.617l-6.472,2.688l0.286,1.241c0.126,0.53,0.172,1.032,0.172,1.534
	c0,3.757-3.172,6.813-7.031,6.813c-3.86,0-7.063-3.056-7.063-6.813c0-2.965,1.824-5.571,4.725-6.484l0.4-0.205V16h2.657l10.286-8
	L16.657,0H14v4.135l-0.182,0.06C6.938,5.146,2,11.095,2,18.031C2,25.733,8.28,32,16,32s13.999-6.267,13.999-13.969
	C29.999,16.748,29.813,15.454,29.448,14.185z"/>
<path fill="#00539C" d="M28.009,14.599l-3.736,1.553c0.144,0.605,0.228,1.232,0.228,1.88c0,4.583-3.813,8.313-8.5,8.313
	c-4.687,0-8.5-3.729-8.5-8.313c0-4.583,3.813-8.313,8.5-8.313V15l9-7l-9-7v4.563c-6.903,0-12.5,5.583-12.5,12.469
	C3.5,24.917,9.097,30.5,16,30.5s12.5-5.583,12.5-12.469C28.5,16.839,28.322,15.69,28.009,14.599z"/>
<g>
</g>
<g>
</g>
<g>
</g>
<g>
</g>
<g>
</g>
<g>
</g>
<g>
</g>
<g>
</g>
<g>
</g>
<g>
</g>
<g>
</g>
<g>
</g>
<g>
</g>
<g>
</g>
<g>
</g>
</svg>
