<?xml version="1.0" encoding="utf-8"?>
<!-- Generator: Adobe Illustrator 16.0.0, SVG Export Plug-In . SVG Version: 6.00 Build 0)  -->
<!DOCTYPE svg PUBLIC "-//W3C//DTD SVG 1.0//EN" "http://www.w3.org/TR/2001/REC-SVG-20010904/DTD/svg10.dtd">
<svg version="1.0" id="Layer_1" xmlns="http://www.w3.org/2000/svg" xmlns:xlink="http://www.w3.org/1999/xlink" x="0px" y="0px"
	 width="32px" height="32px" viewBox="0 0 32 32" enable-background="new 0 0 32 32" xml:space="preserve">
<rect x="5.034" y="14.966" transform="matrix(0.7072 0.707 -0.707 0.7072 18.8837 0.3379)" fill="#F6F6F6" width="8.001" height="16"/>
<circle fill="#F6F6F6" cx="19.451" cy="12.548" r="12"/>
<rect x="7.387" y="16.112" transform="matrix(0.707 0.7072 -0.7072 0.707 18.741 -0.0136)" fill="#424242" width="4.001" height="13.001"/>
<path fill="#424242" d="M24.4,17.498c-2.729,2.729-7.17,2.729-9.898,0l-1.415,1.414c3.508,3.51,9.218,3.51,12.728,0
	c3.509-3.509,3.509-9.219,0-12.728L24.4,7.598C27.13,10.327,27.13,14.769,24.4,17.498z"/>
<path fill="#424242" d="M14.502,17.498c-2.729-2.729-2.729-7.17,0-9.9c2.729-2.729,7.17-2.729,9.898,0l1.415-1.414
	c-3.51-3.509-9.22-3.509-12.728,0c-3.509,3.509-3.509,9.219,0,12.728L14.502,17.498z"/>
<g>
</g>
<g>
</g>
<g>
</g>
<g>
</g>
<g>
</g>
<g>
</g>
<g>
</g>
<g>
</g>
<g>
</g>
<g>
</g>
<g>
</g>
<g>
</g>
<g>
</g>
<g>
</g>
<g>
</g>
</svg>
