<?xml version="1.0" encoding="utf-8"?>
<!-- Generator: Adobe Illustrator 16.0.0, SVG Export Plug-In . SVG Version: 6.00 Build 0)  -->
<!DOCTYPE svg PUBLIC "-//W3C//DTD SVG 1.0//EN" "http://www.w3.org/TR/2001/REC-SVG-20010904/DTD/svg10.dtd">
<svg version="1.0" id="Layer_1" xmlns="http://www.w3.org/2000/svg" xmlns:xlink="http://www.w3.org/1999/xlink" x="0px" y="0px"
	 width="32px" height="32px" viewBox="0 0 32 32" enable-background="new 0 0 32 32" xml:space="preserve">
<path fill="#F6F6F6" d="M5,32c-2.206,0-4-2.044-4-4.25c0-0.499,0.091-1.111,0.271-1.573l0.039-0.155L12.376,2.335
	c0.656-1.4,2.078-2.32,3.624-2.32c1.544,0,2.967,0.896,3.623,2.294l11.038,23.585C30.894,26.439,31,27.212,31,27.752
	C31,29.958,29.206,32,27,32H5z"/>
<path fill="#FFCC00" d="M13.735,2.94C14.134,2.089,14.998,1.5,16,1.5s1.866,0.589,2.266,1.44l11.037,23.587
	C29.43,26.826,29.5,27.154,29.5,27.5c0,1.381-1.119,2.5-2.5,2.5H5c-1.381,0-2.5-1.119-2.5-2.5c0-0.319,0.06-0.625,0.169-0.905
	L13.735,2.94z"/>
<rect x="14" y="10" width="4" height="11"/>
<ellipse cx="16" cy="25.016" rx="2" ry="1.973"/>
<g>
</g>
<g>
</g>
<g>
</g>
<g>
</g>
<g>
</g>
<g>
</g>
<g>
</g>
<g>
</g>
<g>
</g>
<g>
</g>
<g>
</g>
<g>
</g>
<g>
</g>
<g>
</g>
<g>
</g>
</svg>
