<?xml version="1.0" encoding="utf-8"?>
<!-- Generator: Adobe Illustrator 16.0.0, SVG Export Plug-In . SVG Version: 6.00 Build 0)  -->
<!DOCTYPE svg PUBLIC "-//W3C//DTD SVG 1.0//EN" "http://www.w3.org/TR/2001/REC-SVG-20010904/DTD/svg10.dtd">
<svg version="1.0" id="Layer_1" xmlns="http://www.w3.org/2000/svg" xmlns:xlink="http://www.w3.org/1999/xlink" x="0px" y="0px"
	 width="32px" height="32px" viewBox="0 0 32 32" enable-background="new 0 0 32 32" xml:space="preserve">
<polygon fill="#F6F6F6" points="24,8 24,2 10,2 10,8 2,8 2,28 32,28 32,8 "/>
<polygon fill="#424242" points="12,4 12,8 14,8 14,6 20,6 20,8 22,8 22,4 "/>
<polygon fill="#424242" points="4,10 4,16 10,16 10,14 12,14 12,16 22,16 22,14 24,14 24,16 30,16 30,10 "/>
<polygon fill="#424242" points="24,18 24,20 22,20 22,18 12,18 12,20 10,20 10,18 4,18 4,26 30,26 30,18 "/>
<g>
</g>
<g>
</g>
<g>
</g>
<g>
</g>
<g>
</g>
<g>
</g>
<g>
</g>
<g>
</g>
<g>
</g>
<g>
</g>
<g>
</g>
<g>
</g>
<g>
</g>
<g>
</g>
<g>
</g>
</svg>
