<?xml version="1.0" encoding="utf-8"?>
<!-- Generator: Adobe Illustrator 16.0.0, SVG Export Plug-In . SVG Version: 6.00 Build 0)  -->
<!DOCTYPE svg PUBLIC "-//W3C//DTD SVG 1.0//EN" "http://www.w3.org/TR/2001/REC-SVG-20010904/DTD/svg10.dtd">
<svg version="1.0" id="Layer_1" xmlns="http://www.w3.org/2000/svg" xmlns:xlink="http://www.w3.org/1999/xlink" x="0px" y="0px"
	 width="32px" height="32px" viewBox="0 0 32 32" enable-background="new 0 0 32 32" xml:space="preserve">
<polygon points="18,2 18,0 14,0 14,2 5,2 5,5 14,5 18,5 27,5 27,2 "/>
<rect x="3" y="6" width="26" height="3"/>
<polygon points="22.521,29 20.125,29 20.958,9 17.958,9 17.125,29 14.875,29 14.042,9 11.042,9 11.875,29 9.479,29 6,9 3,9 7,32 
	10,32 12,32 15,32 17,32 20,32 22,32 25,32 29,9 26,9 "/>
<g>
</g>
<g>
</g>
<g>
</g>
<g>
</g>
<g>
</g>
<g>
</g>
<g>
</g>
<g>
</g>
<g>
</g>
<g>
</g>
<g>
</g>
<g>
</g>
<g>
</g>
<g>
</g>
<g>
</g>
</svg>
