<?xml version="1.0" encoding="utf-8"?>
<!-- Generator: Adobe Illustrator 16.0.0, SVG Export Plug-In . SVG Version: 6.00 Build 0)  -->
<!DOCTYPE svg PUBLIC "-//W3C//DTD SVG 1.0//EN" "http://www.w3.org/TR/2001/REC-SVG-20010904/DTD/svg10.dtd">
<svg version="1.0" id="Layer_1" xmlns="http://www.w3.org/2000/svg" xmlns:xlink="http://www.w3.org/1999/xlink" x="0px" y="0px"
	 width="32px" height="32px" viewBox="0 0 32 32" enable-background="new 0 0 32 32" xml:space="preserve">
<polygon points="5.562,10.928 3.458,18.646 1.528,18.12 0.214,22.944 2.144,23.47 0.04,31.188 2.935,31.978 8.456,11.717 "/>
<path d="M22.907,7H7v3h13v1.171L21.171,10l2.101-2.101C23.185,7.549,23.058,7.252,22.907,7z"/>
<polygon points="25.75,14 25.125,29 23,29 23,14 20,14 20,29 18,29 18,10 15,10 15,29 12.875,29 12.083,10 9.083,10 10,32 12,32 
	13,32 15,32 18,32 20,32 23,32 25,32 27,32 28,32 28.75,14 "/>
<path fill="#AA0000" d="M29.161,4.839c-2.953-6.881-10.857-6.351-11.686,1.899c2.131-4.522,7.597-3.24,7.917,1.869L22,12h10V2
	L29.161,4.839z"/>
<g>
</g>
<g>
</g>
<g>
</g>
<g>
</g>
<g>
</g>
<g>
</g>
<g>
</g>
<g>
</g>
<g>
</g>
<g>
</g>
<g>
</g>
<g>
</g>
<g>
</g>
<g>
</g>
<g>
</g>
</svg>
