<?xml version="1.0" encoding="utf-8"?>
<!-- Generator: Adobe Illustrator 16.0.0, SVG Export Plug-In . SVG Version: 6.00 Build 0)  -->
<!DOCTYPE svg PUBLIC "-//W3C//DTD SVG 1.0//EN" "http://www.w3.org/TR/2001/REC-SVG-20010904/DTD/svg10.dtd">
<svg version="1.0" id="Layer_1" xmlns="http://www.w3.org/2000/svg" xmlns:xlink="http://www.w3.org/1999/xlink" x="0px" y="0px"
	 width="32px" height="32px" viewBox="0 0 32 32" enable-background="new 0 0 32 32" xml:space="preserve">
<path fill="#F6F6F6" d="M24.828,2H22v1.37C20.179,2.501,18.149,2,16,2C8.961,2,3.135,7.227,2.16,14H2v10.828L7.172,30H10v-1.37
	c1.821,0.869,3.851,1.37,6,1.37c7.039,0,12.864-5.227,13.84-12H30V7.171L24.828,2z"/>
<polygon fill="#424242" points="12,16 4,16 4,24 8,28 8,20 16,20 "/>
<polygon fill="#424242" points="20,16 28,16 28,8 24,4 24,12 16,12 "/>
<path fill="#424242" d="M10.308,10.404c0.293-0.298,0.607-0.577,0.943-0.827l-2.009-3.48C8.315,6.733,7.488,7.5,6.773,8.363
	L10.308,10.404z"/>
<path fill="#424242" d="M5.221,10.775C4.733,11.781,4.371,12.86,4.18,14h4.083c0.109-0.422,0.255-0.829,0.429-1.221L5.221,10.775z"
	/>
<path fill="#424242" d="M16,4c-1.473,0-2.882,0.267-4.185,0.753l2.045,3.542C14.542,8.105,15.258,8,16,8c4.411,0,6,3.589,6,8h4
	C26,9.372,22.628,4,16,4z"/>
<path fill="#424242" d="M22.691,25.938c0.952-0.644,1.816-1.409,2.547-2.294l-3.545-2.047c-0.311,0.316-0.651,0.602-1.01,0.864
	L22.691,25.938z"/>
<path fill="#424242" d="M18.135,23.699C17.455,23.89,16.741,24,16,24c-4.411,0-6-3.589-6-8H6c0,6.627,3.373,12,10,12
	c1.473,0,2.877-0.274,4.18-0.76L18.135,23.699z"/>
<path fill="#424242" d="M26.777,21.237c0.49-1.009,0.851-2.094,1.043-3.237h-4.084c-0.11,0.426-0.255,0.838-0.431,1.233
	L26.777,21.237z"/>
<g>
</g>
<g>
</g>
<g>
</g>
<g>
</g>
<g>
</g>
<g>
</g>
<g>
</g>
<g>
</g>
<g>
</g>
<g>
</g>
<g>
</g>
<g>
</g>
<g>
</g>
<g>
</g>
<g>
</g>
</svg>
