<?xml version="1.0" encoding="utf-8"?>
<!-- Generator: Adobe Illustrator 16.0.0, SVG Export Plug-In . SVG Version: 6.00 Build 0)  -->
<!DOCTYPE svg PUBLIC "-//W3C//DTD SVG 1.0//EN" "http://www.w3.org/TR/2001/REC-SVG-20010904/DTD/svg10.dtd">
<svg version="1.0" id="Layer_1" xmlns="http://www.w3.org/2000/svg" xmlns:xlink="http://www.w3.org/1999/xlink" x="0px" y="0px"
	 width="32px" height="32px" viewBox="0 0 32 32" enable-background="new 0 0 32 32" xml:space="preserve">
<rect x="18.966" y="14.966" transform="matrix(-0.7071 0.7071 -0.7071 -0.7071 55.4447 22.9681)" fill="#F6F6F6" width="8" height="16"/>
<circle fill="#F6F6F6" cx="12.548" cy="12.548" r="12"/>
<rect x="20.613" y="16.112" transform="matrix(-0.707 0.7072 -0.7072 -0.707 54.5921 22.6073)" fill="#424242" width="4" height="13.001"/>
<path fill="#424242" d="M7.6,17.498c2.729,2.729,7.17,2.729,9.898,0l1.414,1.414c-3.508,3.51-9.218,3.51-12.728,0
	c-3.509-3.509-3.509-9.219,0-12.728L7.6,7.598C4.87,10.327,4.87,14.769,7.6,17.498z"/>
<path fill="#424242" d="M17.498,17.498c2.729-2.729,2.729-7.17,0-9.9c-2.729-2.729-7.17-2.729-9.898,0L6.185,6.184
	c3.51-3.509,9.22-3.509,12.728,0c3.509,3.509,3.509,9.219,0,12.728L17.498,17.498z"/>
<polygon fill="#79A3C8" points="18,12 14,12 14,8 12,8 12,12 8,12 8,14 12,14 12,18 14,18 14,14 18,14 "/>
<polygon fill="#00539C" points="17,11 13,11 13,7 11,7 11,11 7,11 7,13 11,13 11,17 13,17 13,13 17,13 "/>
<g>
</g>
<g>
</g>
<g>
</g>
<g>
</g>
<g>
</g>
<g>
</g>
<g>
</g>
<g>
</g>
<g>
</g>
<g>
</g>
<g>
</g>
<g>
</g>
<g>
</g>
<g>
</g>
<g>
</g>
</svg>
