<?xml version="1.0" encoding="UTF-8"?>
<svg xmlns="http://www.w3.org/2000/svg" xmlns:xlink="http://www.w3.org/1999/xlink" version="1.0" id="Layer_2" x="0px" y="0px" width="421px" height="719px" viewBox="0 0 421 719" xml:space="preserve">
<radialGradient id="SVGID_1_" cx="210.5" cy="508.498" r="210.5" gradientTransform="matrix(1 0 0 0.2239 0 558.0366)" gradientUnits="userSpaceOnUse">
	<stop offset="0" style="stop-color:#000000;stop-opacity:0.7"></stop>
	<stop offset="0.9751" style="stop-color:#000000;stop-opacity:0"></stop>
</radialGradient>
<ellipse fill="url(#SVGID_1_)" cx="210.5" cy="671.875" rx="210.5" ry="47.125"></ellipse>
<path fill="none" stroke="#000000" stroke-width="13" stroke-linecap="round" stroke-miterlimit="10" d="M167,652.5  c16.5,20.055,45.25,39,87-2.5"></path>
<linearGradient id="SVGID_2_" gradientUnits="userSpaceOnUse" x1="109" y1="568.041" x2="304.5" y2="568.041">
	<stop offset="0" style="stop-color:#FFD686"></stop>
	<stop offset="0.23" style="stop-color:#FFD645"></stop>
	<stop offset="0.5" style="stop-color:#FFECA9"></stop>
	<stop offset="0.78" style="stop-color:#FFD645"></stop>
	<stop offset="1" style="stop-color:#FFD686"></stop>
</linearGradient>
<path fill="url(#SVGID_2_)" stroke="#D59600" stroke-width="12" stroke-miterlimit="10" d="M126.5,555.5  C118.216,548.735,109,539,109,529c0-5.25,13.107-20.382,17.5-24.5c8-7.5,44.75-31.5,79-30c37.18,1.628,74.5,20.5,84,31.75  c14.279,16.909,17,30.5,1.25,37.75c8.5,5,13.775,16.25,13.75,23.5c-0.038,10.766-8.5,16.5-12,20c14.25,11.25,11,25.75-2.5,41.5  c-38.25,30.916-88.75,43-129.75,22.5S103,615.75,120,601c-6.25-4.5-11.002-9.5-11-22C109.002,567.177,118.583,558.002,126.5,555.5z"></path>
<path fill="none" stroke="#D59600" stroke-width="12" stroke-linecap="round" stroke-miterlimit="10" d="M150.75,558.75  c22,16.75,80,12,111.5,24"></path>
<path fill="none" stroke="#D59600" stroke-width="12" stroke-linecap="round" stroke-miterlimit="10" d="M147.75,600.75  c22,16.75,80,12,111.5,24"></path>
<path opacity="0.5" fill="#40647F" d="M209.722,530.646c-2.051,0-4.114-0.046-6.132-0.138l-0.089-0.004l-0.09,0.004  c-1.632,0.072-3.278,0.109-4.893,0.109c-41.391,0-74.524-22.606-78.892-29.471c-2.657-4.175-2.43-11.726-1.839-23.7  c0.294-5.957,0.598-12.117,0.235-17.013l-0.007-0.1l-0.018-0.099c-1.056-6.008-24.196-71.697-51.087-126.474  c-11.728-23.891-23.736-44.201-33.385-60.521c-7.778-13.156-13.391-22.65-15.758-28.806c-12.838-33.381-5.296-90.024-5.214-90.581  c6.617-41.409,33.236-71.62,61.015-98.096C109.22,21.779,169.354,4,210.329,4h0.416c33.691,0,82.382,8.129,123.015,46.854  c31.457,29.982,63.936,66.056,66.307,106.285c1.985,33.678-0.158,63.612-6.198,86.566c-4.258,16.18-13.281,29.632-23.729,45.207  l-0.537,0.801c-8.531,12.716-18.199,27.129-27.511,46.096c-11.732,23.898-21.321,50.287-29.026,71.491  c-1.226,3.375-2.404,6.608-3.537,9.691c-3.175,8.643-5.989,15.954-8.251,21.828l-0.097,0.251c-2.986,7.756-4.813,12.55-5.164,14.14  l-0.03,0.139l-0.011,0.142c-0.245,3.246-0.474,7.941-0.695,12.482c-1.187,24.315-2.176,35.887-4.904,40.176  c-2.951,4.636-15.743,10.824-27.112,14.899C251.05,525.427,231.847,530.646,209.722,530.646z"></path>
<linearGradient id="SVGID_3_" gradientUnits="userSpaceOnUse" x1="205.521" y1="4" x2="205.521" y2="533.147">
	<stop offset="0" style="stop-color:#6290C4"></stop>
	<stop offset="1" style="stop-color:#3A6AA8"></stop>
</linearGradient>
<path fill="none" stroke="url(#SVGID_3_)" stroke-width="13" stroke-miterlimit="10" d="M209.722,526.646  c-1.99,0-3.993-0.045-5.952-0.134l-0.269-0.012l-0.269,0.012c-1.573,0.07-3.159,0.105-4.715,0.105  c-21.761,0-40.211-6.513-51.858-11.976C133.022,508.245,124.392,501.188,123,499c-2.108-3.313-1.676-12.077-1.218-21.355  c0.3-6.078,0.61-12.363,0.229-17.505l-0.022-0.3l-0.052-0.295C120.633,452.13,96.472,384.904,70.5,332  c-11.796-24.029-23.848-44.415-33.532-60.794C29.289,258.217,23.747,248.844,21.5,243c-12.478-32.446-5.067-88.023-4.989-88.575  c6.42-40.176,32.544-66.028,59.816-92.021C111.219,29.149,169.15,10.5,209.329,10.5h1.416c32.961,0,80.58,9.187,120.255,47  c30.894,29.445,62.783,62.907,65.073,101.75c1.961,33.261-0.139,61.825-6.073,84.375c-4.087,15.529-12.937,28.253-23.184,43.528  l-0.537,0.566c-8.601,12.821-18.35,27.235-27.779,46.444c-11.827,24.092-21.457,50.535-29.195,71.829  c-1.224,3.371-2.4,6.57-3.532,9.648c-3.164,8.616-5.974,15.897-8.23,21.759l-0.096,0.24c-3.409,8.856-4.938,12.898-5.337,14.708  l-0.092,0.416l-0.032,0.425c-0.249,3.303-0.479,8.024-0.701,12.589c-0.91,18.659-1.861,34.414-4.284,38.223  c-1.738,2.73-11.598,8.445-25.087,13.281C249.998,521.555,231.272,526.646,209.722,526.646z"></path>
<radialGradient id="SVGID_4_" cx="206.6123" cy="265" r="197.6745" gradientUnits="userSpaceOnUse">
	<stop offset="0" style="stop-color:#FFFF7E"></stop>
	<stop offset="0.8797" style="stop-color:#FFFFFF;stop-opacity:0"></stop>
</radialGradient>
<path fill="url(#SVGID_4_)" d="M370.139,288.913c10.448-15.575,19.472-29.027,23.729-45.207c3.495-13.284,5.677-28.917,6.518-46.249  C372.616,119.395,298.091,63.5,210.5,63.5c-97.842,0-179.385,69.74-197.661,162.219c1.142,6.653,2.738,13.023,4.927,18.717  c2.367,6.156,7.98,15.649,15.758,28.806c9.648,16.32,21.657,36.63,33.385,60.521c18.81,38.315,35.782,81.964,44.647,106.798  c29.228,16.508,62.982,25.939,98.943,25.939c31.51,0,61.327-7.238,87.889-20.134c0.767-2.031,1.7-4.463,2.791-7.296l0.097-0.251  c2.262-5.874,5.076-13.185,8.251-21.828c1.133-3.083,2.312-6.315,3.537-9.691c7.705-21.204,17.294-47.593,29.026-71.491  c9.312-18.967,18.979-33.38,27.511-46.096L370.139,288.913z"></path>
<linearGradient id="SVGID_5_" gradientUnits="userSpaceOnUse" x1="202.1899" y1="197.5313" x2="103.6118" y2="80.0504">
	<stop offset="0" style="stop-color:#FFFFFF;stop-opacity:0.7"></stop>
	<stop offset="1" style="stop-color:#FFFFFF;stop-opacity:0.4"></stop>
</linearGradient>
<path opacity="0.4" fill="url(#SVGID_5_)" d="M254.213,58.533c26.276,33.169,2.22,95.993-53.733,140.318  c-55.954,44.326-122.613,53.369-148.891,20.198c-26.277-33.169-2.22-95.993,53.732-140.318  C161.275,34.405,227.936,25.362,254.213,58.533z"></path>
<path opacity="0.6" fill="none" stroke="#FFFFFF" stroke-width="10" stroke-miterlimit="10" d="M128.5,445  c-0.554-12.735-22.888-54.379-27.5-67c-3.278-8.972-24-53-27-62.5S43.574,261.348,34.5,238c-10.06-25.885-9.093-74-2.5-94  c8.924-27.071,25.5-51.5,50-73s81.55-50.209,128.531-48.5c54.969,2,81.814,16.192,107.969,39c16.826,14.673,54,53,62.5,86  c5.173,20.082,1.826,68.388-4.5,92.5c-6.716,25.596-36.5,66.5-47,87s-25.5,64.5-30,75.5S289.5,427,286,442s0,30.5-4.5,38.5  s-14,22-71,19.5s-83.112-7.562-82.726-22.048S129,456.5,128.5,445z"></path>
<linearGradient id="SVGID_6_" gradientUnits="userSpaceOnUse" x1="209.249" y1="373.502" x2="209.249" y2="258.4995">
	<stop offset="0" style="stop-color:#110000"></stop>
	<stop offset="0.0615" style="stop-color:#1A0909"></stop>
	<stop offset="0.164" style="stop-color:#322323"></stop>
	<stop offset="0.2946" style="stop-color:#584D4D"></stop>
	<stop offset="0.4484" style="stop-color:#8E8686"></stop>
	<stop offset="0.6197" style="stop-color:#D2CFCF"></stop>
	<stop offset="0.7247" style="stop-color:#FFFFFF"></stop>
</linearGradient>
<path fill="url(#SVGID_6_)" d="M263.915,259.255c-2.46-1.366-5.532-0.842-7.399,1.258c-13.904,15.643-19.233,15.283-20.165,15.051  c-1.525-0.379-3.776-3.333-5.521-10.486c-0.588-2.411-2.601-4.211-5.062-4.529c-2.466-0.32-4.865,0.914-6.045,3.097  c-6.49,12.001-10.117,14.068-10.925,14.397c-1.571-1.084-3.801-6.463-4.661-8.537c-0.9-2.171-1.677-4.047-2.63-5.489  c-1.072-1.624-2.865-2.626-4.809-2.69c-1.96-0.073-3.8,0.818-4.976,2.368c-9.717,12.796-13.955,15.413-15.833,15.328  c-3.263-0.126-9.822-10.304-13.346-15.772c-1.614-2.505-4.822-3.446-7.536-2.208c-2.711,1.238-4.103,4.279-3.267,7.14l29.5,101  c0.93,3.182,4.263,5.007,7.441,4.077c3.181-0.929,5.006-4.261,4.077-7.441l-22.157-75.86c1.527,0.629,3.123,0.99,4.825,1.055  c6.713,0.256,12.682-4.193,19.64-12.295c2.58,5.395,6.406,11.023,13.05,11.365c5.311,0.26,10.335-2.966,15.707-10.296  c2.154,3.357,5.229,6.328,9.631,7.423c4.753,1.182,9.847,0.004,15.677-3.763l-23.756,80.226c3.987,0.633,7.596,3.025,10.424,6.617  c0.18-0.343,0.339-0.701,0.453-1.086l30.5-103C267.551,263.509,266.371,260.621,263.915,259.255z"></path>
<linearGradient id="SVGID_7_" gradientUnits="userSpaceOnUse" x1="172" y1="432.3867" x2="236" y2="432.3867">
	<stop offset="0" style="stop-color:#FFFFFF;stop-opacity:0"></stop>
	<stop offset="0.4467" style="stop-color:#FFFFFF"></stop>
	<stop offset="1" style="stop-color:#FFFFFF;stop-opacity:0"></stop>
</linearGradient>
<path fill="url(#SVGID_7_)" d="M172,374.152V502.41c10.364,1.069,22.931,1.912,38.281,2.585c4.531,0.199,8.915,0.3,13.028,0.3  c4.568,0,8.776-0.128,12.69-0.358V367.062C209.267,352.482,189.499,361.188,172,374.152z"></path>
<path fill="none" stroke="#D7D3CE" stroke-width="12" stroke-linecap="round" stroke-linejoin="round" stroke-miterlimit="10" d="  M167,507V378c22-17.5,47-31,85,0v129"></path>
</svg>