<?xml version="1.0" encoding="utf-8"?>
<svg version="1.0" id="Layer_1" xmlns="http://www.w3.org/2000/svg" xmlns:xlink="http://www.w3.org/1999/xlink" x="0px" y="0px"
	 width="640px" height="640px" viewBox="0 0 640 640" xml:space="preserve">
<g id="Spinner">
	<g>
		<path opacity="0.01" d="M356.201,17.607l1.938-15.335c-6.619-0.787-13.298-1.376-20.035-1.752l-0.222,3.525
			C345.03,7.107,351.274,11.783,356.201,17.607z"/>
		<path opacity="0.01" d="M331.966,98.047l-0.143,2.271c4.634,0.246,9.227,0.646,13.779,1.173l1.341-10.614
			C342.458,94.046,337.415,96.491,331.966,98.047z"/>
		<path opacity="0.02" d="M358.139,2.272l-1.938,15.335C363.582,26.334,368,37.639,368,50c0,16.897-8.247,31.826-21.057,40.877
			l-1.341,10.614c4.607,0.534,9.175,1.198,13.69,2.012l18.742-98.239C371.472,4.062,364.836,3.067,358.139,2.272z"/>
		<path opacity="0.03" d="M372.829,106.401l24.877-96.88c-6.482-1.617-13.04-3.042-19.671-4.257l-18.742,98.239
			C363.857,104.326,368.368,105.301,372.829,106.401z"/>
		<path opacity="0.04" d="M386.167,110.133l30.909-95.124c-6.372-2.027-12.832-3.857-19.37-5.488l-24.877,96.88
			C377.33,107.511,381.779,108.751,386.167,110.133z"/>
		<path opacity="0.05" d="M399.242,114.717l36.824-93.004c-6.237-2.428-12.57-4.663-18.99-6.704l-30.909,95.124
			C390.588,111.525,394.946,113.058,399.242,114.717z"/>
		<path opacity="0.06" d="M412.006,120.12l42.587-90.498c-6.076-2.821-12.251-5.465-18.526-7.909l-36.824,93.004
			C403.564,116.387,407.82,118.189,412.006,120.12z"/>
		<path opacity="0.07" d="M424.412,126.313l48.188-87.652c-5.89-3.201-11.901-6.204-18.008-9.039l-42.587,90.498
			C416.214,122.06,420.354,124.121,424.412,126.313z"/>
		<path opacity="0.08" d="M436.396,133.297l53.589-84.439c-5.681-3.569-11.47-6.981-17.384-10.196l-48.188,87.652
			C428.487,128.516,432.48,130.851,436.396,133.297z"/>
		<path opacity="0.09" d="M447.93,141.008l58.78-80.9c-5.448-3.921-11.027-7.67-16.726-11.25l-53.589,84.439
			C440.324,135.751,444.174,138.318,447.93,141.008z"/>
		<path opacity="0.1" d="M458.952,149.441l63.747-77.054c-5.195-4.257-10.529-8.35-15.989-12.28l-58.78,80.9
			C451.695,143.704,455.369,146.519,458.952,149.441z"/>
		<path opacity="0.11" d="M469.427,158.552l68.452-72.892c-4.921-4.577-9.978-9.009-15.18-13.273l-63.747,77.054
			C462.541,152.368,466.032,155.408,469.427,158.552z"/>
		<path opacity="0.12" d="M479.325,168.292l72.894-68.449c-4.628-4.879-9.416-9.602-14.34-14.183l-68.452,72.892
			C472.824,161.698,476.132,164.939,479.325,168.292z"/>
		<path opacity="0.13" d="M488.575,178.655l77.053-63.742c-4.314-5.163-8.782-10.192-13.409-15.071l-72.894,68.449
			C482.519,171.645,485.597,175.106,488.575,178.655z"/>
		<path opacity="0.14" d="M497.171,189.572l80.902-58.777c-3.985-5.426-8.134-10.723-12.445-15.881l-77.053,63.742
			C491.552,182.201,494.419,185.841,497.171,189.572z"/>
		<path opacity="0.15" d="M505.069,201.009l84.448-53.591c-3.638-5.67-7.466-11.206-11.444-16.624l-80.902,58.777
			C499.918,193.298,502.557,197.109,505.069,201.009z"/>
		<path opacity="0.16" d="M512.217,212.935l87.644-48.181c-3.275-5.892-6.714-11.68-10.343-17.335l-84.448,53.591
			C507.576,204.9,509.954,208.88,512.217,212.935z"/>
		<path opacity="0.17" d="M518.614,225.282l90.499-42.583c-2.898-6.092-5.989-12.073-9.253-17.945l-87.644,48.181
			C514.473,216.975,516.611,221.09,518.614,225.282z"/>
		<path opacity="0.18" d="M524.204,238.02l93.001-36.82c-2.507-6.268-5.207-12.437-8.092-18.501l-90.499,42.583
			C520.608,229.457,522.471,233.706,524.204,238.02z"/>
		<path opacity="0.19" d="M528.977,251.088l95.124-30.906c-2.105-6.418-4.401-12.75-6.896-18.982l-93.001,36.82
			C525.929,242.311,527.52,246.669,528.977,251.088z"/>
		<path opacity="0.2" d="M532.915,264.433l96.884-24.874c-1.694-6.545-3.606-13.001-5.698-19.377l-95.124,30.906
			C530.423,255.479,531.742,259.926,532.915,264.433z"/>
		<path opacity="0.21" d="M535.979,278.006l98.239-18.739c-1.276-6.643-2.739-13.219-4.42-19.708l-96.884,24.874
			C534.079,268.903,535.095,273.431,535.979,278.006z"/>
		<path opacity="0.22" d="M538.199,291.744l99.225-12.534c-0.854-6.718-1.94-13.362-3.205-19.942l-98.239,18.739
			C536.855,282.539,537.606,287.116,538.199,291.744z"/>
		<path opacity="0.23" d="M539.519,305.596l99.798-6.277c-0.432-6.76-1.048-13.469-1.893-20.108l-99.225,12.534
			C538.786,296.317,539.217,300.938,539.519,305.596z"/>
		<path opacity="0.24" d="M539.994,320h100c-0.011-7-0.252-13.757-0.678-20.433l-99.798,6.402
			C539.815,310.568,539.983,315,539.994,320z"/>
		<path opacity="0.25" d="M540,320.249c0,4.504-0.151,8.849-0.419,13.286l99.798,6.218c0.396-6.516,0.621-12.859,0.621-19.473
			c0-0.166-0.006-0.28-0.006-0.28h-100C539.994,320,540,320.083,540,320.249z"/>
		<path opacity="0.26" d="M539.581,333.41c-0.28,4.659-0.696,9.281-1.263,13.857l99.22,12.535
			c0.824-6.642,1.431-13.351,1.841-20.112L539.581,333.41z"/>
		<path opacity="0.27" d="M536.167,361.015l98.239,18.742c1.243-6.584,2.298-13.234,3.132-19.954l-99.22-12.535
			C537.746,351.897,537.022,356.479,536.167,361.015z"/>
		<path opacity="0.28" d="M533.166,374.603l96.881,24.876c1.659-6.495,3.104-13.075,4.359-19.722l-98.239-18.742
			C535.304,365.595,534.309,370.128,533.166,374.603z"/>
		<path opacity="0.29" d="M529.284,387.964l95.123,30.909c2.071-6.382,3.965-12.844,5.64-19.395l-96.881-24.876
			C532.014,379.115,530.711,383.567,529.284,387.964z"/>
		<path opacity="0.3" d="M524.581,401.057l93.001,36.823c2.474-6.239,4.74-12.582,6.825-19.007l-95.123-30.909
			C527.848,392.39,526.286,396.759,524.581,401.057z"/>
		<path opacity="0.31" d="M519.036,413.813l90.498,42.587c2.866-6.074,5.56-12.245,8.048-18.521l-93.001-36.823
			C522.867,405.38,521.012,409.631,519.036,413.813z"/>
		<path opacity="0.32" d="M512.703,426.195l87.643,48.183c3.246-5.882,6.31-11.877,9.188-17.978l-90.498-42.587
			C517.053,418.016,514.94,422.145,512.703,426.195z"/>
		<path opacity="0.33" d="M505.607,438.151l84.439,53.589c3.611-5.667,7.041-11.46,10.299-17.362l-87.643-48.183
			C510.459,430.26,508.097,434.249,505.607,438.151z"/>
		<path opacity="0.34" d="M497.758,449.622l80.901,58.779c3.962-5.43,7.768-10.98,11.388-16.661l-84.439-53.589
			C503.112,442.063,500.488,445.884,497.758,449.622z"/>
		<path opacity="0.35" d="M489.219,460.584l77.052,63.743c4.295-5.171,8.421-10.487,12.389-15.926l-80.901-58.779
			C495.023,453.366,492.18,457.024,489.219,460.584z"/>
		<path opacity="0.36" d="M480.004,470.979l72.893,68.451c4.611-4.893,9.074-9.927,13.374-15.103l-77.052-63.743
			C486.257,464.146,483.183,467.611,480.004,470.979z"/>
		<path opacity="0.37" d="M470.156,480.769l68.45,72.894c4.91-4.595,9.678-9.339,14.29-14.232l-72.893-68.451
			C476.826,474.345,473.54,477.607,470.156,480.769z"/>
		<path opacity="0.38" d="M459.729,489.934l63.745,77.055c5.189-4.279,10.227-8.733,15.133-13.326l-68.45-72.894
			C466.776,483.928,463.304,486.99,459.729,489.934z"/>
		<path opacity="0.39" d="M448.735,498.404l58.778,80.902c5.447-3.946,10.778-8.044,15.96-12.318l-63.745-77.055
			C456.159,492.872,452.488,495.691,448.735,498.404z"/>
		<path opacity="0.4" d="M437.242,506.175l53.586,84.441c5.687-3.598,11.249-7.371,16.686-11.31l-58.778-80.902
			C444.991,501.111,441.158,503.703,437.242,506.175z"/>
		<path opacity="0.41" d="M425.289,513.211l48.181,87.643c5.903-3.233,11.689-6.651,17.358-10.237l-53.586-84.441
			C433.337,508.64,429.354,510.99,425.289,513.211z"/>
		<path opacity="0.42" d="M412.91,519.459l42.584,90.498c6.098-2.854,12.096-5.884,17.976-9.104l-48.181-87.643
			C421.239,515.422,417.108,517.5,412.91,519.459z"/>
		<path opacity="0.43" d="M400.174,524.928l36.822,93.005c6.269-2.463,12.431-5.136,18.498-7.976l-42.584-90.498
			C408.732,521.408,404.489,523.238,400.174,524.928z"/>
		<path opacity="0.44" d="M387.115,529.56l30.906,95.124c6.413-2.062,12.745-4.303,18.975-6.751l-36.822-93.005
			C395.886,526.607,391.529,528.146,387.115,529.56z"/>
		<path opacity="0.45" d="M373.798,533.363l24.874,96.88c6.533-1.651,12.983-3.513,19.35-5.56l-30.906-95.124
			C382.733,530.962,378.294,532.232,373.798,533.363z"/>
		<path opacity="0.46" d="M360.271,536.31l18.739,98.239c6.627-1.235,13.185-2.668,19.661-4.306l-24.874-96.88
			C369.341,534.482,364.831,535.466,360.271,536.31z"/>
		<path opacity="0.47" d="M346.593,538.396l12.534,99.22c6.694-0.816,13.323-1.844,19.884-3.066l-18.739-98.239
			C355.759,537.145,351.197,537.841,346.593,538.396z"/>
		<path opacity="0.48" d="M332.817,539.619l6.278,99.798c6.734-0.396,13.414-0.995,20.031-1.802l-12.534-99.22
			C342.042,538.944,337.449,539.353,332.817,539.619z"/>
		<path opacity="0.49" d="M319.5,540c-0.334,0-0.5-0.011-1.5-0.013v100c1,0.001,1.166,0.013,1.501,0.013
			c6.413,0,13.024-0.211,19.345-0.583l-6.403-99.798C328.199,539.862,323.805,540,319.5,540z"/>
		<path opacity="0.5" d="M304.691,539.493l-6.529,99.798c6.644,0.432,13.837,0.676,19.837,0.696v-100
			C314,539.967,309.258,539.797,304.691,539.493z"/>
		<path opacity="0.51" d="M291.444,538.157l-12.536,99.225c6.605,0.847,13.279,1.472,20.003,1.909l6.279-99.798
			C300.569,539.186,295.983,538.746,291.444,538.157z"/>
		<path opacity="0.52" d="M277.815,535.943l-18.741,98.238c6.544,1.262,13.153,2.344,19.833,3.2l12.536-99.225
			C286.854,537.563,282.312,536.816,277.815,535.943z"/>
		<path opacity="0.53" d="M264.354,532.894l-24.875,96.884c6.453,1.672,12.992,3.131,19.597,4.404l18.741-98.238
			C273.277,535.062,268.787,534.05,264.354,532.894z"/>
		<path opacity="0.54" d="M251.121,528.986l-30.908,95.124c6.339,2.079,12.758,3.98,19.265,5.667l24.875-96.884
			C259.885,531.729,255.475,530.421,251.121,528.986z"/>
		<path opacity="0.55" d="M238.164,524.263l-36.822,93.001c6.196,2.476,12.491,4.755,18.872,6.847l30.908-95.124
			C246.74,527.544,242.419,525.97,238.164,524.263z"/>
		<path opacity="0.56" d="M225.536,518.732L182.95,609.23c6.03,2.862,12.162,5.544,18.392,8.033l36.822-93.001
			C233.887,522.548,229.675,520.704,225.536,518.732z"/>
		<path opacity="0.57" d="M213.289,512.415l-48.182,87.643c5.839,3.236,11.788,6.298,17.843,9.173l42.585-90.498
			C221.379,516.753,217.297,514.643,213.289,512.415z"/>
		<path opacity="0.58" d="M201.457,505.362l-53.588,84.44c5.625,3.597,11.38,7.008,17.238,10.255l48.182-87.643
			C209.269,510.181,205.317,507.837,201.457,505.362z"/>
		<path opacity="0.59" d="M190.11,497.563l-58.778,80.901c5.391,3.941,10.898,7.732,16.537,11.338l53.588-84.44
			C197.587,502.883,193.81,500.273,190.11,497.563z"/>
		<path opacity="0.6" d="M179.265,489.091l-63.743,77.052c5.135,4.271,10.412,8.374,15.811,12.322l58.778-80.901
			C186.406,494.849,182.788,492.026,179.265,489.091z"/>
		<path opacity="0.61" d="M168.974,479.959l-68.451,72.893c4.86,4.582,9.86,9.017,14.999,13.291l63.743-77.052
			C175.739,486.153,172.308,483.108,168.974,479.959z"/>
		<path opacity="0.62" d="M159.277,470.206l-72.893,68.45c4.566,4.876,9.278,9.612,14.138,14.195l68.451-72.893
			C165.64,476.811,162.409,473.556,159.277,470.206z"/>
		<path opacity="0.63" d="M150.192,459.885l-77.054,63.744c4.255,5.151,8.682,10.154,13.246,15.027l72.893-68.45
			C156.147,466.858,153.11,463.423,150.192,459.885z"/>
		<path opacity="0.64" d="M141.792,449.004L60.89,507.782c3.926,5.408,8,10.701,12.249,15.847l77.054-63.744
			C147.278,456.352,144.484,452.718,141.792,449.004z"/>
		<path opacity="0.65" d="M134.07,437.635l-84.44,53.587c3.582,5.645,7.341,11.163,11.26,16.561l80.902-58.778
			C139.104,445.299,136.527,441.51,134.07,437.635z"/>
		<path opacity="0.66" d="M127.079,425.806l-87.643,48.182c3.223,5.858,6.622,11.606,10.194,17.234l84.44-53.587
			C131.621,433.771,129.289,429.827,127.079,425.806z"/>
		<path opacity="0.67" d="M120.846,413.562l-90.498,42.585c2.85,6.052,5.878,12.003,9.088,17.841l87.643-48.182
			C124.876,421.799,122.8,417.715,120.846,413.562z"/>
		<path opacity="0.68" d="M115.378,400.959l-93,36.821c2.465,6.223,5.133,12.342,7.97,18.366l90.498-42.585
			C118.9,409.428,117.069,405.229,115.378,400.959z"/>
		<path opacity="0.69" d="M110.738,388.031l-95.125,30.907c2.069,6.368,4.314,12.656,6.764,18.842l93-36.821
			C113.698,396.715,112.158,392.4,110.738,388.031z"/>
		<path opacity="0.7" d="M106.894,374.848l-96.88,24.874c1.665,6.49,3.546,12.893,5.601,19.217l95.125-30.907
			C109.328,383.692,108.036,379.3,106.894,374.848z"/>
		<path opacity="0.71" d="M103.915,361.443l-98.239,18.74c1.253,6.584,2.688,13.104,4.337,19.538l96.88-24.874
			C105.761,370.434,104.776,365.96,103.915,361.443z"/>
		<path opacity="0.72" d="M101.752,347.886L2.533,360.42c0.839,6.656,1.902,13.241,3.143,19.764l98.239-18.74
			C103.062,356.969,102.33,352.452,101.752,347.886z"/>
		<path opacity="0.73" d="M100.47,334.219l-99.798,6.278c0.423,6.697,1.031,13.344,1.861,19.923l99.219-12.534
			C101.181,343.372,100.763,338.813,100.47,334.219z"/>
		<path opacity="0.74" d="M100.006,321h-100c0.01,6,0.247,13.132,0.666,19.747l99.798-6.153C100.18,330.056,100.017,325,100.006,321
			z"/>
		<path opacity="0.75" d="M100,320.25c0-4.609,0.159-9.305,0.438-13.844L0.64,300.065C0.232,306.681,0,313.563,0,320.281
			C0,320.448,0.006,320,0.006,321h100C100.006,320,100,320.417,100,320.25z"/>
		<path opacity="0.76" d="M101.695,292.611l-99.22-12.534c-0.819,6.581-1.422,13.227-1.835,19.925l99.798,6.278
			C100.721,301.686,101.135,297.126,101.695,292.611z"/>
		<path opacity="0.77" d="M103.821,279.048l-98.239-18.74c-1.231,6.523-2.278,13.112-3.106,19.769l99.22,12.534
			C102.263,288.044,102.978,283.524,103.821,279.048z"/>
		<path opacity="0.78" d="M106.775,265.638l-96.88-24.875c-1.64,6.438-3.07,12.958-4.313,19.544l98.239,18.74
			C104.672,274.529,105.652,270.056,106.775,265.638z"/>
		<path opacity="0.79" d="M110.584,252.444l-95.125-30.908c-2.044,6.328-3.911,12.734-5.565,19.227l96.88,24.875
			C107.907,261.183,109.184,256.786,110.584,252.444z"/>
		<path opacity="0.8" d="M115.194,239.506l-93.004-36.823c-2.44,6.189-4.671,12.483-6.73,18.854l95.125,30.908
			C111.993,248.072,113.523,243.753,115.194,239.506z"/>
		<path opacity="0.81" d="M120.634,226.892l-90.498-42.585c-2.827,6.029-5.492,12.149-7.947,18.376l93.004,36.823
			C116.875,235.231,118.698,231.03,120.634,226.892z"/>
		<path opacity="0.82" d="M126.834,214.631L39.192,166.45c-3.202,5.842-6.216,11.8-9.056,17.857l90.498,42.585
			C122.579,222.734,124.642,218.642,126.834,214.631z"/>
		<path opacity="0.83" d="M133.806,202.79l-84.44-53.587c-3.563,5.634-6.959,11.383-10.173,17.248l87.642,48.181
			C129.036,210.604,131.365,206.658,133.806,202.79z"/>
		<path opacity="0.84" d="M141.497,191.4l-80.901-58.778c-3.91,5.403-7.657,10.931-11.23,16.581l84.44,53.587
			C136.253,198.909,138.818,195.111,141.497,191.4z"/>
		<path opacity="0.85" d="M149.879,180.504l-77.055-63.745c-4.241,5.152-8.311,10.448-12.229,15.862l80.901,58.778
			C144.181,187.681,146.973,184.044,149.879,180.504z"/>
		<path opacity="0.86" d="M158.937,170.16l-72.893-68.451c-4.556,4.88-8.974,9.891-13.22,15.05l77.055,63.745
			C152.789,176.96,155.814,173.515,158.937,170.16z"/>
		<path opacity="0.87" d="M168.608,160.381l-68.451-72.893c-4.853,4.59-9.555,9.337-14.113,14.221l72.893,68.451
			C162.061,166.803,165.281,163.538,168.608,160.381z"/>
		<path opacity="0.88" d="M178.883,151.232L115.14,74.18c-5.132,4.282-10.13,8.719-14.983,13.309l68.451,72.893
			C171.935,157.225,175.364,154.177,178.883,151.232z"/>
		<path opacity="0.89" d="M189.707,142.731L130.928,61.83c-5.393,3.956-10.66,8.072-15.788,12.35l63.743,77.052
			C182.399,148.289,186.009,145.454,189.707,142.731z"/>
		<path opacity="0.9" d="M201.039,134.911l-53.592-84.447c-5.634,3.614-11.134,7.416-16.519,11.366l58.778,80.901
			C193.399,140.013,197.175,137.4,201.039,134.911z"/>
		<path opacity="0.91" d="M212.853,127.829l-48.182-87.642c-5.853,3.256-11.604,6.672-17.224,10.277l53.592,84.447
			C204.894,132.428,208.837,130.072,212.853,127.829z"/>
		<path opacity="0.92" d="M225.083,121.479l-42.585-90.498c-6.051,2.884-11.992,5.96-17.827,9.206l48.182,87.642
			C216.856,125.592,220.93,123.468,225.083,121.479z"/>
		<path opacity="0.93" d="M237.701,115.926l-36.821-93c-6.226,2.499-12.357,5.184-18.382,8.056l42.585,90.498
			C229.218,119.498,233.428,117.651,237.701,115.926z"/>
		<path opacity="0.94" d="M250.646,111.167l-30.908-95.124c-6.377,2.103-12.666,4.396-18.858,6.882l36.821,93
			C241.953,114.21,246.268,112.621,250.646,111.167z"/>
		<path opacity="0.95" d="M263.872,107.236l-24.875-96.883c-6.503,1.697-12.922,3.601-19.258,5.69l30.908,95.124
			C254.996,109.724,259.406,108.412,263.872,107.236z"/>
		<path opacity="0.96" d="M277.325,104.151l-18.74-98.239c-6.603,1.284-13.137,2.758-19.588,4.441l24.875,96.883
			C268.303,106.071,272.789,105.043,277.325,104.151z"/>
		<path opacity="0.97" d="M290.949,101.912L278.414,2.687c-6.678,0.867-13.287,1.953-19.83,3.225l18.74,98.239
			C281.819,103.268,286.361,102.517,290.949,101.912z"/>
		<path opacity="0.98" d="M304.692,100.539l-6.278-99.798c-6.725,0.448-13.396,1.089-20,1.946l12.535,99.225
			C295.488,101.313,300.071,100.856,304.692,100.539z"/>
		<path opacity="0.99" d="M318,100.019v-100c-6,0.031-13.193,0.279-19.836,0.722l6.153,99.798
			C308.883,100.225,314,100.05,318,100.019z"/>
	</g>
	<path d="M318,0c28,0,50,22.386,50,50c0,27.613-22,50-50,50V0z"/>
	<animateTransform
      	attributeName="transform"
      	begin="0s"
      	dur="3s"
      	type="rotate"
      	from="0 320 320"
      	to="360 320 320"
      	repeatCount="indefinite" />
</g>
</svg>