<?xml version="1.0" encoding="UTF-8"?>
<svg xmlns="http://www.w3.org/2000/svg" xmlns:xlink="http://www.w3.org/1999/xlink" version="1.0" id="Layer_1" x="0px" y="0px" width="128px" height="128px" viewBox="0 0 128 128" xml:space="preserve">
<path fill="#555555" d="M88.986,55.078c-0.307,0.307-0.659,0.561-1.047,0.754l-1.175,0.583C87.562,58.801,88,61.35,88,64  c0,13.233-10.767,24-24,24S40,77.233,40,64s10.767-24,24-24c2.913,0,5.706,0.523,8.292,1.478l0.526-1.052  c0.19-0.384,0.443-0.734,0.748-1.038l26.093-26.092C89.571,6.188,77.278,2,64,2C29.759,2,2,29.759,2,64s27.759,62,62,62  s62-27.759,62-62c0-13.016-4.019-25.089-10.871-35.063L88.986,55.078z"></path>
<path d="M82.273,46.235c1.209,1.244,2.199,2.622,2.982,4.089l-0.279,0.28l-11.369,5.649c-0.209-0.241-0.408-0.486-0.637-0.715  l-6.49,6.489l19.679-9.778l39.598-39.598c-0.862-2.193-2.159-4.236-3.888-6.012L82.273,46.235z"></path>
<path d="M66.48,62.028l6.49-6.489l0,0c-0.224-0.223-0.462-0.417-0.697-0.62L78.038,43.4l0.237-0.238  c1.371,0.777,2.664,1.727,3.828,2.89c0.06,0.06,0.111,0.124,0.17,0.184L121.869,6.64c-0.059-0.06-0.107-0.126-0.167-0.186  c-1.685-1.684-3.629-2.949-5.709-3.837L76.395,42.215l-5.742,11.479C70.65,53.693,66.48,62.028,66.48,62.028z"></path>
</svg>