<?xml version="1.0" encoding="UTF-8"?>
<svg xmlns="http://www.w3.org/2000/svg" xmlns:xlink="http://www.w3.org/1999/xlink" version="1.0" id="Layer_1" x="0px" y="0px" width="128px" height="128px" viewBox="0 0 128 128" xml:space="preserve">
<path fill="#8B8B8B" d="M88,64c0,13.233-10.767,24-24,24v38c34.241,0,62-27.759,62-62S98.241,2,64,2v38C77.233,40,88,50.767,88,64z"></path>
<path fill="#8B8B8B" d="M64,88c-13.233,0-24-10.767-24-24s10.767-24,24-24V2C29.759,2,2,29.759,2,64s27.759,62,62,62V88z"></path>
<path d="M64.22,125H64c-4,0-8-0.392-11.891-1.164l0.39-1.961C56.261,122.621,60.13,123,64,123h0.22V125z"></path>
<path d="M76.11,123.793l-0.396-1.961c3.777-0.764,7.493-1.906,11.045-3.397l0.773,1.844C83.859,121.82,80.017,123.003,76.11,123.793  z"></path>
<path d="M40.673,120.364c-3.672-1.526-7.216-3.426-10.533-5.646l1.112-1.662c3.208,2.148,6.636,3.985,10.188,5.461L40.673,120.364z"></path>
<path d="M98.045,114.594l-1.119-1.658c3.19-2.153,6.187-4.633,8.907-7.37l1.418,1.41  C104.439,109.805,101.343,112.368,98.045,114.594z"></path>
<path d="M20.906,107.133c-2.82-2.816-5.375-5.921-7.593-9.227l1.661-1.115c2.146,3.198,4.617,6.202,7.345,8.928L20.906,107.133z"></path>
<path d="M114.811,97.721l-1.664-1.109c2.139-3.211,3.967-6.643,5.433-10.201l1.85,0.762C118.912,90.852,117.022,94.4,114.811,97.721  z"></path>
<path d="M7.657,87.379c-1.533-3.681-2.705-7.526-3.483-11.433l1.962-0.391c0.752,3.776,1.885,7.496,3.368,11.054L7.657,87.379z"></path>
<path d="M123.869,75.727l-1.963-0.383C122.632,71.628,123,67.812,123,64v-0.165h2V64C125,67.94,124.619,71.886,123.869,75.727z"></path>
<path d="M3,64.055V64c0-3.979,0.388-7.961,1.153-11.836l1.962,0.388C5.375,56.298,5,60.15,5,64L3,64.055z"></path>
<path d="M121.843,52.339c-0.76-3.776-1.9-7.493-3.389-11.048l1.846-0.772c1.538,3.677,2.718,7.521,3.504,11.426L121.843,52.339z"></path>
<path d="M9.462,41.49l-1.848-0.766c1.522-3.674,3.419-7.22,5.637-10.538l1.663,1.111C12.769,34.507,10.935,37.937,9.462,41.49z"></path>
<path d="M112.966,31.119c-2.15-3.193-4.628-6.192-7.361-8.914l1.41-1.417c2.826,2.813,5.387,5.913,7.609,9.213L112.966,31.119z"></path>
<path d="M22.244,22.357l-1.416-1.412c2.815-2.823,5.917-5.381,9.22-7.602l1.116,1.66C27.969,17.152,24.967,19.626,22.244,22.357z"></path>
<path d="M96.657,14.884c-3.211-2.142-6.642-3.973-10.197-5.442l0.764-1.849c3.677,1.519,7.224,3.413,10.543,5.627L96.657,14.884z"></path>
<path d="M41.341,9.524L40.57,7.679C44.249,6.143,48.094,4.968,52,4.186l0.393,1.961C48.616,6.903,44.898,8.04,41.341,9.524z"></path>
<path d="M75.396,6.104C71.666,5.372,67.832,5,64,5h-0.11V3H64c3.961,0,7.925,0.384,11.781,1.142L75.396,6.104z"></path>
<path d="M63.946,91c-4.098-0.008-8.035-0.915-11.701-2.695l0.874-1.799c3.393,1.647,7.037,2.486,10.831,2.494L63.946,91z"></path>
<path d="M75.658,88.352l-0.866-1.803c3.355-1.612,6.366-4.005,8.708-6.92l1.559,1.252C82.532,84.027,79.281,86.61,75.658,88.352z"></path>
<path d="M42.875,80.799c-2.518-3.161-4.319-6.903-5.208-10.82l1.95-0.443c0.823,3.626,2.49,7.09,4.822,10.018L42.875,80.799z"></path>
<path d="M90.31,70.082l-1.949-0.451c0.426-1.838,0.641-3.732,0.64-5.63c0-1.852-0.204-3.697-0.606-5.486l1.951-0.438  C90.779,60.008,91,62.001,91,64C91.001,66.05,90.769,68.096,90.31,70.082z"></path>
<path d="M39.628,58.417l-1.949-0.446c0.896-3.916,2.705-7.654,5.229-10.81l1.562,1.249C42.132,51.333,40.458,54.793,39.628,58.417z"></path>
<path d="M83.592,48.488c-2.323-2.927-5.319-5.338-8.665-6.971l0.877-1.797c3.613,1.763,6.848,4.365,9.354,7.525L83.592,48.488z"></path>
<path d="M53.162,41.473l-0.87-1.801C55.963,37.899,59.902,37,64,37h0.105v2H64C60.206,39,56.56,39.832,53.162,41.473z"></path>
<polygon fill="#800000" points="6,127 1,127 122,1 127,1 "></polygon>
</svg>