<?xml version="1.0" encoding="UTF-8"?>
<svg xmlns="http://www.w3.org/2000/svg" xmlns:xlink="http://www.w3.org/1999/xlink" version="1.0" id="Layer_1" x="0px" y="0px" width="128px" height="128px" viewBox="0 0 128 128" xml:space="preserve">
<path fill="#555555" d="M88.987,55.078c-0.307,0.307-0.66,0.561-1.048,0.754L68.262,65.61c-1.539,0.765-3.394,0.461-4.608-0.754  c-0.001-0.001-0.002-0.003-0.004-0.004c-1.215-1.218-1.514-3.076-0.745-4.614l9.914-19.813c0.191-0.384,0.444-0.734,0.748-1.038  l26.092-26.091C89.57,6.188,77.277,2,64,2C29.759,2,2,29.759,2,64s27.759,62,62,62s62-27.759,62-62  c0-13.016-4.019-25.088-10.871-35.063L88.987,55.078z"></path>
<path d="M82.273,46.235c1.209,1.244,2.2,2.622,2.983,4.089l-0.28,0.28l-11.369,5.649c-0.208-0.241-0.408-0.486-0.637-0.715  l-6.489,6.489l19.678-9.778l39.598-39.598c-0.862-2.193-2.16-4.236-3.888-6.012L82.273,46.235z"></path>
<path d="M66.481,62.028l6.489-6.489l0,0c-0.223-0.223-0.461-0.417-0.696-0.62L78.038,43.4l0.238-0.238  c1.371,0.777,2.664,1.727,3.827,2.89c0.06,0.06,0.112,0.124,0.17,0.184L121.869,6.64c-0.059-0.06-0.107-0.126-0.167-0.186  c-1.684-1.684-3.629-2.949-5.709-3.837L76.395,42.215l-5.743,11.479C70.651,53.693,66.481,62.028,66.481,62.028z"></path>
</svg>