<?xml version="1.0" encoding="UTF-8"?>
<svg xmlns="http://www.w3.org/2000/svg" xmlns:xlink="http://www.w3.org/1999/xlink" version="1.0" id="Layer_1" x="0px" y="0px" width="128px" height="128px" viewBox="0 0 128 128" xml:space="preserve">
<polygon fill="#555555" points="23.009,95.198 16.448,95.198 44.145,33.786 50.734,33.786 "></polygon>
<path fill="#555555" d="M8.241,38.088c-2.108,2.868-3.162,6.799-3.162,11.794c0,4.996,1.054,8.934,3.162,11.815  c2.035,2.782,4.812,4.208,8.313,4.303H17v-6.608c-0.026,0-0.05,0.006-0.077,0.006c-1.425,0-2.523-0.826-3.295-2.478  s-1.158-3.998-1.158-7.038c0-3.013,0.386-5.339,1.158-6.978c0.772-1.639,1.87-2.458,3.295-2.458c0.026,0,0.051,0.005,0.077,0.006  V33.79c-0.026,0-0.05-0.004-0.077-0.004C13.243,33.786,10.348,35.22,8.241,38.088z"></path>
<path fill="#555555" d="M25.606,38.088c-2.093-2.847-4.963-4.277-8.606-4.298v6.663c1.367,0.03,2.432,0.844,3.189,2.452  c0.771,1.639,1.158,3.965,1.158,6.978c0,3.04-0.381,5.385-1.143,7.038c-0.748,1.621-1.817,2.442-3.204,2.472V66h-0.446  c0.125,0.004,0.243,0.02,0.369,0.02c3.681,0,6.575-1.44,8.683-4.321c2.107-2.881,3.161-6.819,3.161-11.815  C28.768,44.887,27.714,40.956,25.606,38.088z"></path>
<path fill="#555555" d="M50.23,62.966c-0.079,0-0.152,0.01-0.23,0.012v6.667c0.077-0.006,0.151-0.019,0.23-0.019  c1.405,0,2.489,0.813,3.25,2.438c0.762,1.625,1.143,3.944,1.143,6.957c0,3.041-0.376,5.373-1.128,6.998s-1.84,2.438-3.265,2.438  c-0.079,0-0.153-0.013-0.23-0.017V95h2.388c2.671-0.473,4.856-1.843,6.54-4.143c2.117-2.896,3.176-6.84,3.176-11.836  c0-4.994-1.059-8.92-3.176-11.773C56.81,64.393,53.911,62.966,50.23,62.966z"></path>
<path fill="#555555" d="M50,95v-6.559c-1.311-0.086-2.331-0.887-3.05-2.422c-0.762-1.625-1.143-3.957-1.143-6.998  c0-3.013,0.386-5.332,1.158-6.957c0.729-1.535,1.743-2.336,3.036-2.422v-6.666c-3.57,0.06-6.4,1.484-8.482,4.291  c-2.127,2.866-3.191,6.785-3.191,11.754c0,4.996,1.064,8.94,3.191,11.836c2.127,2.894,5.031,4.341,8.712,4.341  c0.755,0,1.468-0.076,2.158-0.198H50z"></path>
<path fill="#555555" d="M72.818,40.426c0.19-0.384,0.443-0.734,0.748-1.038l4.532-4.532h-8.485v11.975L72.818,40.426z"></path>
<path fill="#555555" d="M102.139,41.927l-7.886,24.607l-4.04-12.682l-1.227,1.226c-0.307,0.307-0.659,0.561-1.047,0.754  l-5.061,2.515l7.782,24.323h7.243l10.211-31.915v43.294h10.806V34.856h-9.711L102.139,41.927z"></path>
<polygon fill="#555555" points="69.613,64.938 69.613,94.049 80.449,94.049 80.449,59.554 "></polygon>
<path d="M82.273,46.235c1.209,1.244,2.199,2.622,2.982,4.089l-0.279,0.28l-11.369,5.649c-0.209-0.241-0.408-0.486-0.637-0.715  l-6.49,6.489l19.679-9.778l39.598-39.598c-0.862-2.193-2.159-4.236-3.888-6.012L82.273,46.235z"></path>
<path d="M66.48,62.028l6.49-6.489l0,0c-0.224-0.223-0.462-0.417-0.697-0.62L78.038,43.4l0.237-0.238  c1.371,0.777,2.664,1.727,3.828,2.89c0.06,0.06,0.111,0.124,0.17,0.184L121.869,6.64c-0.059-0.06-0.107-0.126-0.167-0.186  c-1.685-1.684-3.629-2.949-5.709-3.837L76.395,42.215l-5.742,11.479C70.65,53.693,66.48,62.028,66.48,62.028z"></path>
</svg>