<?xml version="1.0" encoding="UTF-8"?>
<svg xmlns="http://www.w3.org/2000/svg" xmlns:xlink="http://www.w3.org/1999/xlink" version="1.0" id="Layer_1_copy" x="0px" y="0px" width="128px" height="128px" viewBox="0 0 128 128" xml:space="preserve">
<path fill="#8B8B8B" d="M64,88c-13.255,0-24-10.745-24-24H1.559c0,0.065-0.005,0.13-0.005,0.195c0,17.673,14.327,32.098,32,32.098  l61,0.073c17.672,0,32-14.511,32-32.183c0-0.062-0.005-0.122-0.006-0.183H88C88,77.255,77.255,88,64,88z"></path>
<path fill="#8B8B8B" d="M40,64c0-13.255,10.745-24,24-24s24,10.745,24,24h38.549c-0.099-17.59-14.384-32-31.994-32h-61  C15.946,32,1.664,46.415,1.559,64H40z"></path>
<path d="M94.557,95.366l-1.991-0.002l0.002-2l1.99,0.002c3.249,0,6.442-0.54,9.488-1.605l0.66,1.889  C101.447,94.788,98.032,95.366,94.557,95.366z"></path>
<rect x="68.566" y="93.342" transform="matrix(1 0.0012 -0.0012 1 0.1152 -0.091)" width="12" height="2"></rect>
<rect x="44.566" y="93.313" transform="matrix(1 0.0011 -0.0011 1 0.1075 -0.0575)" width="12" height="2"></rect>
<path d="M33.557,95.293c-4.182,0-8.242-0.825-12.068-2.453L22.272,91c3.577,1.521,7.374,2.293,11.285,2.293V95.293z"></path>
<path d="M64,91c-3.39,0-6.698-0.623-9.833-1.854l0.73-1.861c3.581,1.404,7.444,1.959,11.318,1.618l0.174,1.992  C65.598,90.965,64.793,91,64,91z"></path>
<path d="M115.287,87.347l-1.344-1.482c2.894-2.622,5.198-5.741,6.853-9.269l1.811,0.85C120.84,81.214,118.377,84.545,115.287,87.347  z"></path>
<path d="M78.114,87.011l-1.049-1.703c3.271-2.014,6.081-4.799,8.125-8.053l1.693,1.064C84.678,81.831,81.646,84.837,78.114,87.011z"></path>
<path d="M11.34,85.865c-2.907-2.998-5.148-6.482-6.663-10.355l1.863-0.729c1.416,3.625,3.514,6.886,6.235,9.691L11.34,85.865z"></path>
<path d="M44.009,82.13c-2.798-3.083-4.872-6.815-5.997-10.796l1.925-0.543c1.041,3.684,2.961,7.14,5.552,9.995L44.009,82.13z"></path>
<path d="M90.872,66.632l-1.99-0.193c0.077-0.799,0.117-1.619,0.118-2.439c0-3.063-0.55-6.055-1.635-8.894l1.869-0.714  C90.406,57.459,91,60.692,91,64C90.999,64.885,90.956,65.771,90.872,66.632z"></path>
<path d="M125.526,65.484l-1.998-0.084c0.017-0.407,0.025-0.817,0.025-1.23l-0.005-0.128c-0.02-3.46-0.632-6.824-1.82-10.023  l1.875-0.696c1.271,3.418,1.925,7.013,1.945,10.683l0.005,0.134C125.554,64.61,125.545,65.05,125.526,65.484z"></path>
<path d="M4.568,63.43l-1.999-0.051c0.106-4.173,1.027-8.212,2.736-12.005l1.823,0.822C5.529,55.745,4.667,59.525,4.568,63.43z"></path>
<path d="M39.43,59.369l-1.966-0.37c0.765-4.067,2.499-7.97,5.013-11.286l1.594,1.209C41.743,51.992,40.138,55.604,39.43,59.369z"></path>
<path d="M80.948,45.638c-2.831-2.616-6.271-4.566-9.945-5.64l0.561-1.92c3.971,1.161,7.685,3.267,10.742,6.091L80.948,45.638z"></path>
<path d="M115.663,44.217c-2.674-2.861-5.826-5.118-9.37-6.708l0.818-1.825c3.788,1.7,7.156,4.111,10.013,7.168L115.663,44.217z"></path>
<path d="M13.84,42.824l-1.366-1.46c3.056-2.86,6.58-5.039,10.473-6.475l0.692,1.876C19.998,38.109,16.701,40.147,13.84,42.824z"></path>
<path d="M52.872,41.616l-0.894-1.789C55.735,37.951,59.78,37,64,37v2C60.093,39,56.349,39.88,52.872,41.616z"></path>
<polygon points="95.057,35.004 94.555,35 83.073,35 83.073,33 95.09,33.004 "></polygon>
<rect x="59.074" y="33" width="12" height="2"></rect>
<rect x="35.074" y="33" width="12" height="2"></rect>
<polygon fill="#800000" points="7.752,127 2.752,127 120.248,1 125.248,1 "></polygon>
</svg>