<?xml version="1.0" encoding="UTF-8"?>
<svg xmlns="http://www.w3.org/2000/svg" xmlns:xlink="http://www.w3.org/1999/xlink" version="1.0" id="Layer_1" x="0px" y="0px" width="128px" height="128px" viewBox="0 0 128 128" xml:space="preserve">
<path fill="#555555" d="M64,88c-13.255,0-24-10.745-24-24H1.559c0,0.065-0.005,0.13-0.005,0.195c0,17.673,14.327,32.098,32,32.098  l61,0.073c17.673,0,32-14.51,32-32.183c0-0.062-0.004-0.122-0.005-0.183H88C88,77.255,77.255,88,64,88z"></path>
<path fill="#555555" d="M40,64c0-13.255,10.745-24,24-24s24,10.745,24,24h38.549c-0.099-17.59-14.384-32-31.995-32h-61  C15.946,32,1.664,46.415,1.559,64H40z"></path>
</svg>