<?xml version="1.0" encoding="UTF-8"?>
<svg xmlns="http://www.w3.org/2000/svg" xmlns:xlink="http://www.w3.org/1999/xlink" version="1.0" id="Layer_1" x="0px" y="0px" width="128px" height="128px" viewBox="0 0 128 128" xml:space="preserve">
<path fill="#8B8B8B" d="M94.555,32h-61c-17.673,0-32,14.521-32,32.195c0,17.673,14.327,32.098,32,32.098l61,0.073  c17.672,0,32-14.511,32-32.183C126.555,46.51,112.227,32,94.555,32z"></path>
<path fill="#8B8B8B" d="M33.557,94.293c-16.544,0-30.002-13.502-30.002-30.098c0-16.649,13.458-30.195,30-30.195h61  c16.542,0,30,13.54,30,30.183c0,16.642-13.457,30.181-29.998,30.183l0,0L33.557,94.293z"></path>
<path d="M94.557,95.366l-1.961-0.002l0.002-2l1.96,0.002c3.26-0.001,6.462-0.545,9.517-1.615l0.662,1.887  C101.469,94.784,98.044,95.365,94.557,95.366z"></path>
<rect x="68.598" y="93.342" transform="matrix(1 0.0012 -0.0012 1 0.1152 -0.091)" width="11.999" height="2"></rect>
<rect x="44.597" y="93.313" transform="matrix(1 0.0011 -0.0011 1 0.1075 -0.0576)" width="12" height="2"></rect>
<path d="M33.557,95.293c-4.182,0-8.242-0.825-12.068-2.453L22.272,91c3.577,1.521,7.374,2.293,11.285,2.293V95.293z"></path>
<path d="M115.31,87.325l-1.344-1.48c2.89-2.625,5.193-5.746,6.845-9.274l1.811,0.848C120.857,81.188,118.397,84.521,115.31,87.325z"></path>
<path d="M11.34,85.865c-2.907-2.998-5.148-6.482-6.663-10.355l1.863-0.729c1.416,3.625,3.514,6.886,6.235,9.691L11.34,85.865z"></path>
<path d="M125.529,65.455l-1.998-0.082c0.016-0.395,0.023-0.791,0.023-1.19c0-3.505-0.613-6.935-1.824-10.192l1.875-0.696  c1.293,3.481,1.949,7.145,1.949,10.889C125.555,64.609,125.547,65.033,125.529,65.455z"></path>
<path d="M4.564,63.431l-1.999-0.051c0.107-4.176,1.025-8.215,2.729-12.005l1.824,0.82C5.524,55.741,4.665,59.521,4.564,63.431z"></path>
<path d="M115.662,44.191c-2.675-2.858-5.83-5.111-9.377-6.696l0.816-1.826c3.791,1.695,7.163,4.102,10.021,7.156L115.662,44.191z"></path>
<path d="M13.823,42.818l-1.367-1.46c3.056-2.861,6.582-5.039,10.478-6.472l0.69,1.877C19.98,38.104,16.683,40.141,13.823,42.818z"></path>
<polygon points="95.043,35.004 94.555,35 83.061,35 83.061,33 95.078,33.004 "></polygon>
<rect x="59.061" y="33" width="12" height="2"></rect>
<rect x="35.061" y="33" width="12" height="2"></rect>
<polygon fill="#800000" points="6,127 1,127 121.999,1 126.999,1 "></polygon>
</svg>