<?xml version="1.0" encoding="UTF-8"?>
<svg xmlns="http://www.w3.org/2000/svg" xmlns:xlink="http://www.w3.org/1999/xlink" version="1.0" id="Layer_1" x="0px" y="0px" width="128px" height="128px" viewBox="0 0 128 128" xml:space="preserve">
<path fill="#8B8B8B" d="M88,64c0,13.255-10.745,24-24,24v27h36.443l22.521-69.352L64,2.774V40C77.255,40,88,50.746,88,64z"></path>
<path fill="#8B8B8B" d="M64,88c-13.255,0-24-10.745-24-24c0-13.254,10.745-24,24-24V2.774L5.035,45.637L27.557,115H64V88z"></path>
<rect x="79.013" y="112" width="12" height="2"></rect>
<rect x="55.013" y="112" width="12" height="2"></rect>
<rect x="31.013" y="112" width="12" height="2"></rect>
<rect x="21.158" y="106.293" transform="matrix(0.3088 0.9511 -0.9511 0.3088 120.8183 48.3264)" width="12" height="2"></rect>
<rect x="101.085" y="97.467" transform="matrix(0.9512 0.3086 -0.3086 0.9512 36.9128 -26.4535)" width="2" height="12.001"></rect>
<path d="M64,91c-3.39,0-6.698-0.623-9.833-1.854l0.73-1.861c3.581,1.404,7.444,1.959,11.318,1.618l0.174,1.992  C65.598,90.965,64.793,91,64,91z"></path>
<rect x="13.746" y="83.466" transform="matrix(0.3088 0.9511 -0.9511 0.3088 93.9842 39.599)" width="12" height="2"></rect>
<path d="M78.114,87.011l-1.049-1.703c3.271-2.014,6.081-4.799,8.125-8.053l1.693,1.064C84.678,81.831,81.646,84.837,78.114,87.011z"></path>
<rect x="108.498" y="74.641" transform="matrix(0.9512 0.3086 -0.3086 0.9512 30.2303 -29.8552)" width="2" height="12"></rect>
<path d="M44.009,82.13c-2.798-3.083-4.872-6.815-5.997-10.796l1.925-0.543c1.041,3.684,2.961,7.14,5.552,9.995L44.009,82.13z"></path>
<rect x="6.334" y="60.64" transform="matrix(0.3088 0.9511 -0.9511 0.3088 67.1512 30.8717)" width="12" height="2"></rect>
<path d="M90.872,66.632l-1.99-0.193c0.077-0.799,0.117-1.619,0.118-2.439c0-3.063-0.55-6.055-1.635-8.894l1.869-0.714  C90.406,57.459,91,60.692,91,64C90.999,64.885,90.956,65.771,90.872,66.632z"></path>
<rect x="115.911" y="51.815" transform="matrix(0.951 0.309 -0.309 0.951 23.59 -33.3002)" width="2" height="12"></rect>
<path d="M39.43,59.369l-1.966-0.37c0.765-4.067,2.499-7.97,5.013-11.286l1.594,1.209C41.743,51.992,40.138,55.604,39.43,59.369z"></path>
<rect x="12.839" y="35.71" transform="matrix(0.5878 0.809 -0.809 0.5878 39.447 5.9964)" width="2" height="12"></rect>
<path d="M80.948,45.638c-2.831-2.616-6.271-4.566-9.945-5.64l0.561-1.92c3.971,1.161,7.685,3.267,10.742,6.091L80.948,45.638z"></path>
<rect x="104.899" y="38.348" transform="matrix(0.8088 0.5881 -0.5881 0.8088 44.3424 -57.6936)" width="12" height="1.999"></rect>
<path d="M52.872,41.616l-0.894-1.789C55.735,37.951,59.78,37,64,37v2C60.093,39,56.349,39.88,52.872,41.616z"></path>
<rect x="32.252" y="21.598" transform="matrix(0.5878 0.809 -0.809 0.5878 36.0322 -15.525)" width="2" height="12"></rect>
<rect x="85.488" y="24.234" transform="matrix(0.8088 0.5881 -0.5881 0.8088 32.3309 -48.977)" width="12" height="1.999"></rect>
<rect x="51.665" y="7.486" transform="matrix(0.5878 0.809 -0.809 0.5878 32.6177 -37.0464)" width="2" height="12"></rect>
<rect x="66.076" y="10.12" transform="matrix(0.8088 0.5881 -0.5881 0.8088 20.3195 -40.2604)" width="12" height="1.999"></rect>
<polygon fill="#800000" points="7.752,127 2.752,127 120.248,1 125.248,1 "></polygon>
</svg>