<?xml version="1.0" encoding="UTF-8"?>
<svg xmlns="http://www.w3.org/2000/svg" xmlns:xlink="http://www.w3.org/1999/xlink" version="1.0" id="Layer_1" x="0px" y="0px" width="128px" height="128px" viewBox="0 0 128 128" xml:space="preserve">
<path fill="#555555" d="M88.986,55.078c-0.307,0.307-0.659,0.561-1.047,0.754l-19.678,9.777c-1.539,0.766-3.394,0.461-4.608-0.754  c-0.002,0-0.003-0.002-0.005-0.002c-1.215-1.219-1.514-3.077-0.745-4.614l9.915-19.813c0.19-0.384,0.443-0.734,0.748-1.038  l17.172-17.172L64,2.774L5.035,45.637L27.557,115h72.886l22.521-69.352l-14.213-10.334L88.986,55.078z"></path>
<path d="M82.273,46.235c1.209,1.244,2.199,2.622,2.982,4.089l-0.279,0.28l-11.369,5.649c-0.209-0.241-0.408-0.486-0.637-0.715  l-6.49,6.489l19.679-9.778l39.598-39.598c-0.862-2.193-2.159-4.236-3.888-6.012L82.273,46.235z"></path>
<path d="M66.48,62.028l6.49-6.489l0,0c-0.224-0.223-0.462-0.417-0.697-0.62L78.038,43.4l0.237-0.238  c1.371,0.777,2.664,1.727,3.828,2.89c0.06,0.06,0.111,0.124,0.17,0.184L121.869,6.64c-0.059-0.06-0.107-0.126-0.167-0.186  c-1.685-1.684-3.629-2.949-5.709-3.837L76.395,42.215l-5.742,11.479C70.65,53.693,66.48,62.028,66.48,62.028z"></path>
</svg>