<?xml version="1.0" encoding="UTF-8"?>
<svg xmlns="http://www.w3.org/2000/svg" xmlns:xlink="http://www.w3.org/1999/xlink" version="1.0" id="Layer_1" x="0px" y="0px" width="128px" height="128px" viewBox="0 0 128 128" xml:space="preserve">
<path fill="#8B8B8B" d="M64,40c13.254,0,24,10.745,24,24c0,13.254-10.746,24-24,24v15h62V25H64V40z"></path>
<path fill="#8B8B8B" d="M64,88c-13.255,0-24-10.746-24-24c0-13.255,10.745-24,24-24V25H2v78h62V88z"></path>
<polygon points="125,102 116,102 116,100 123,100 123,97 125,97 "></polygon>
<rect x="92" y="100" width="12" height="2"></rect>
<rect x="68" y="100" width="12" height="2"></rect>
<rect x="44" y="100" width="12" height="2"></rect>
<rect x="20" y="100" width="12" height="2"></rect>
<polygon points="8,102 3,102 3,89 5,89 5,100 8,100 "></polygon>
<path d="M64,91c-3.39,0-6.698-0.623-9.833-1.854l0.73-1.861c3.581,1.404,7.444,1.959,11.318,1.618l0.174,1.992  C65.598,90.965,64.793,91,64,91z"></path>
<path d="M78.114,87.011l-1.049-1.703c3.271-2.014,6.081-4.799,8.125-8.053l1.693,1.064C84.678,81.831,81.646,84.837,78.114,87.011z"></path>
<rect x="123" y="73" width="2" height="12"></rect>
<path d="M44.009,82.13c-2.798-3.083-4.872-6.815-5.997-10.796l1.925-0.543c1.041,3.684,2.961,7.14,5.552,9.995L44.009,82.13z"></path>
<rect x="3" y="65" width="2" height="12"></rect>
<path d="M90.872,66.632l-1.99-0.193c0.077-0.799,0.117-1.619,0.118-2.439c0-3.063-0.55-6.055-1.635-8.894l1.869-0.714  C90.406,57.459,91,60.692,91,64C90.999,64.885,90.956,65.771,90.872,66.632z"></path>
<rect x="123" y="49" width="2" height="12"></rect>
<path d="M39.43,59.369l-1.966-0.37c0.765-4.067,2.499-7.97,5.013-11.286l1.594,1.209C41.743,51.992,40.138,55.604,39.43,59.369z"></path>
<rect x="3" y="41" width="2" height="12"></rect>
<path d="M80.948,45.638c-2.831-2.616-6.271-4.566-9.945-5.64l0.561-1.92c3.971,1.161,7.685,3.267,10.742,6.091L80.948,45.638z"></path>
<path d="M52.872,41.616l-0.894-1.789C55.735,37.951,59.78,37,64,37v2C60.093,39,56.349,39.88,52.872,41.616z"></path>
<polygon points="125,37 123,37 123,28 122,28 122,26 125,26 "></polygon>
<polygon points="5,29 3,29 3,26 14,26 14,28 5,28 "></polygon>
<rect x="98" y="26" width="12" height="2"></rect>
<rect x="74" y="26" width="12" height="2"></rect>
<rect x="50" y="26" width="12" height="2"></rect>
<rect x="26" y="26" width="12" height="2"></rect>
<polygon fill="#800000" points="7.752,127 2.752,127 120.248,1 125.248,1 "></polygon>
</svg>