<?xml version="1.0" encoding="UTF-8"?>
<svg xmlns="http://www.w3.org/2000/svg" xmlns:xlink="http://www.w3.org/1999/xlink" version="1.0" id="Layer_1" x="0px" y="0px" width="128px" height="128px" viewBox="0 0 128 128" xml:space="preserve">
<rect x="57.265" y="88.379" fill="#C65454" width="13.467" height="15.751"></rect>
<path fill="#C65454" d="M64.091,36.601c3.374,0,6.232,2.148,7.867,5.543l0.86-1.719c0.19-0.384,0.443-0.734,0.748-1.038l7.344-7.344  c-3.964-5.141-9.966-8.174-17.179-8.174c-7.722,0-13.739,3.237-17.6,9.602c-2.964,4.747-4.131,9.924-4.221,18.77h12.214  C54.124,42.533,57.894,36.601,64.091,36.601z"></path>
<path fill="#C65454" d="M68.262,65.609c-1.519,0.756-3.342,0.465-4.557-0.71c-4.418,5.44-5.762,10.053-5.541,17.548v0.001h11.134  c0-7.12,0.63-8.308,6.017-12.839c5.247-4.473,8.152-8.01,9.589-12.269L68.262,65.609z"></path>
<path d="M82.273,46.235c1.209,1.244,2.199,2.622,2.982,4.089l-0.279,0.28l-11.369,5.649c-0.209-0.241-0.408-0.486-0.637-0.715  l-6.49,6.489l19.679-9.778l39.598-39.598c-0.862-2.193-2.159-4.236-3.888-6.012L82.273,46.235z"></path>
<path d="M66.48,62.028l6.49-6.489l0,0c-0.224-0.223-0.462-0.417-0.697-0.62L78.038,43.4l0.237-0.238  c1.371,0.777,2.664,1.727,3.828,2.89c0.06,0.06,0.111,0.124,0.17,0.184L121.869,6.64c-0.059-0.06-0.107-0.126-0.167-0.186  c-1.685-1.684-3.629-2.949-5.709-3.837L76.395,42.215l-5.742,11.479C70.65,53.693,66.48,62.028,66.48,62.028z"></path>
</svg>