<?xml version="1.0" encoding="UTF-8"?>
<svg xmlns="http://www.w3.org/2000/svg" xmlns:xlink="http://www.w3.org/1999/xlink" version="1.0" id="Layer_1" x="0px" y="0px" width="128px" height="128px" viewBox="0 0 128 128" xml:space="preserve">
<path fill="#C65454" d="M58.164,82.447c-0.27-9.17,1.796-14.024,8.979-21.36c5.209-5.179,6.286-7.228,6.286-12.082  c0-7.119-4.041-12.404-9.338-12.404c-6.197,0-9.967,5.932-9.967,15.641H41.91c0.09-8.846,1.257-14.023,4.221-18.77  c3.861-6.365,9.878-9.602,17.6-9.602c13.2,0,22.359,10.141,22.359,24.812c0,9.061-2.424,13.808-10.776,20.928  c-5.387,4.531-6.016,5.718-6.016,12.838H58.164z"></path>
<rect x="57.265" y="88.379" fill="#C65454" width="13.468" height="15.751"></rect>
</svg>